<?xml version="1.0" encoding="UTF-8" standalone="no"?>
<svg
   xmlns:dc="http://purl.org/dc/elements/1.1/"
   xmlns:cc="http://creativecommons.org/ns#"
   xmlns:rdf="http://www.w3.org/1999/02/22-rdf-syntax-ns#"
   xmlns:svg="http://www.w3.org/2000/svg"
   xmlns="http://www.w3.org/2000/svg"
   xmlns:sodipodi="http://sodipodi.sourceforge.net/DTD/sodipodi-0.dtd"
   xmlns:inkscape="http://www.inkscape.org/namespaces/inkscape"
   inkscape:version="1.0 (4035a4fb49, 2020-05-01)"
   sodipodi:docname="empty.svg"
   viewBox="0 0 561.33331 561.33331"
   height="561.33331"
   width="561.33331"
   id="svg78"
   version="1.1">
  <metadata
     id="metadata84">
    <rdf:RDF>
      <cc:Work
         rdf:about="">
        <dc:format>image/svg+xml</dc:format>
        <dc:type
           rdf:resource="http://purl.org/dc/dcmitype/StillImage" />
        <dc:title></dc:title>
      </cc:Work>
    </rdf:RDF>
  </metadata>
  <defs
     id="defs82" />
  <sodipodi:namedview
     inkscape:current-layer="g86"
     inkscape:window-maximized="1"
     inkscape:window-y="18"
     inkscape:window-x="0"
     inkscape:cy="280.66666"
     inkscape:cx="211.90722"
     inkscape:zoom="0.9673397"
     showgrid="false"
     id="namedview80"
     inkscape:window-height="724"
     inkscape:window-width="1366"
     inkscape:pageshadow="2"
     inkscape:pageopacity="0"
     guidetolerance="10"
     gridtolerance="10"
     objecttolerance="10"
     borderopacity="1"
     bordercolor="#666666"
     pagecolor="#ffffff" />
  <g
     id="g86"
     inkscape:label="Image"
     inkscape:groupmode="layer">
    <path
       style="fill:#fbfbfc;stroke-width:1.33333"
       d="m -18.705883,490.04636 c 0.06709,-41.53064 0.309112,-75.29765 0.537829,-75.03779 0.228718,0.25987 2.651727,6.17248 5.384466,13.13915 19.267724,49.11988 53.86707,94.26322 97.366861,127.03901 5.86667,4.42034 11.20065,8.50888 11.85329,9.08561 0.65264,0.57673 -25.014869,1.10164 -57.038905,1.16645 l -58.22552,0.11787 0.121979,-75.51028 z M 89.916603,561.10887 C 43.638091,526.92802 10.048162,484.97929 -11.579011,434.3562 c -6.228912,-14.58012 -8.087853,-16.22927 -2.372808,-2.10503 9.588526,23.69721 27.466664,53.62412 44.941847,75.22988 15.125099,18.7002 56.222105,56.43398 61.593245,56.55272 0.73333,0.0163 -0.46667,-1.3 -2.66667,-2.9249 z m 338.814177,3.16266 c 0.6522,-0.57628 5.98581,-4.66446 11.85248,-9.0848 42.83931,-32.27814 76.31187,-75.47033 96.08265,-123.98277 l 5.75049,-14.11024 0.12173,74.23181 0.12174,74.23181 -57.55748,-0.11893 c -31.65661,-0.0655 -57.02387,-0.59052 -56.37168,-1.16682 z m 15.59786,-8.39778 c 13.90079,-10.53122 38.68741,-34.59428 49.84787,-48.3927 13.77898,-17.03591 26.61841,-37.23848 36.4373,-57.33333 5.01658,-10.26667 9.4651,-20.16667 9.8856,-22 l 0.76456,-3.33334 -1.54208,3.33334 c -16.52169,35.71284 -27.77234,54.80086 -45.1558,76.61194 -16.17461,20.29433 -36.00026,39.12832 -59.31617,56.34921 -2.2,1.6249 -3.51457,2.97338 -2.92128,2.9966 0.5933,0.0232 5.9933,-3.68104 12,-8.23172 z m -207.74538,5.45751 C 187.28005,556.71843 136.87052,537.0207 96.108643,506.44025 10.201247,441.99062 -30.317771,331.28627 -6.740772,225.43938 c 6.497109,-29.16821 20.232317,-62.68621 34.922184,-85.22054 1.647684,-2.52755 2.184317,-4.09404 1.192517,-3.48107 -1.241704,0.76741 -1.610997,0.53766 -1.185852,-0.73778 0.339582,-1.01874 1.317422,-1.85226 2.172976,-1.85226 0.855556,0 1.614723,-0.6 1.687039,-1.33333 0.275045,-2.78917 2.72318,-6.04119 3.96845,-5.27157 0.71471,0.44171 1.134606,0.22035 0.933103,-0.49191 -0.201504,-0.71226 2.539813,-4.80686 6.091814,-9.0991 l 6.458183,-7.80409 -8.28145,8.53542 c -20.098589,20.71497 -42.934887,56.61966 -55.182774,86.7619 -5.727464,14.09537 -3.823699,12.36166 2.385571,-2.17247 3.18193,-7.448 8.603556,-18.75409 12.048056,-25.12465 6.870783,-12.70743 20.891827,-34.33372 21.721677,-33.50387 0.287568,0.28758 -2.137684,4.34354 -5.389445,9.01326 -9.219043,13.23909 -20.32839,33.76057 -26.972196,49.82374 -3.336413,8.06667 -6.576379,15.86667 -7.199926,17.33333 -0.636774,1.49779 -1.199978,-45.4037 -1.28488,-106.99999 L -18.806884,4.1477351 77.554859,4.2806418 c 52.998961,0.073099 94.861741,0.5889041 93.028411,1.1462344 l -3.33334,1.0133277 3.33334,1.3289908 c 1.83333,0.7309449 4.23333,1.6266818 5.33333,1.9905266 1.10664,0.3660427 -0.97785,1.5241957 -4.66667,2.5928157 l -6.66666,1.931281 6.66666,1.756101 6.66667,1.7561 -4.23764,1.509191 c -6.1482,2.189617 -6.45349,3.082759 -1.37911,4.034719 2.68095,0.502948 6.71839,0.06561 9.96314,-1.079191 17.82937,-6.290574 54.00797,-11.446337 80.32027,-11.446337 26.31231,0 62.49091,5.155763 80.32028,11.446337 3.24475,1.144808 7.28219,1.582139 9.96313,1.079191 5.07946,-0.952912 4.76596,-1.862064 -1.3791,-3.999512 l -4.23764,-1.473984 6.66666,-1.927391 6.66667,-1.927391 -6.66667,-1.759995 c -3.71886,-0.981779 -5.78233,-2.068072 -4.66666,-2.4567331 1.1,-0.3832056 3.5,-1.2947833 5.33333,-2.0257282 l 3.33333,-1.3289908 -3.33333,-1.0133277 c -1.83333,-0.5573303 39.72934,-1.0731357 92.3615,-1.1462344 l 95.69483,-0.1329067 -0.0879,108.2518949 -0.0879,108.2519 -5.77422,-14.16847 c -6.9899,-17.15143 -15.72079,-33.63873 -26.24408,-49.55896 -4.32272,-6.53966 -7.63979,-12.11 -7.37127,-12.37853 0.26853,-0.26852 4.53027,5.68211 9.47053,13.22363 7.39198,11.28416 16.43079,28.48298 27.17707,51.71186 l 1.54208,3.33333 -0.79665,-3.33333 c -1.31396,-5.49775 -14.66022,-32.70721 -22.01692,-44.8866 -9.293,-15.38505 -24.43923,-35.53987 -34.50207,-45.91131 l -8.28144,-8.53542 6.45819,7.80409 c 3.552,4.29224 6.29332,8.38684 6.09181,9.0991 -0.20149,0.71226 0.2184,0.93362 0.93311,0.49191 1.24526,-0.76962 3.6934,2.4824 3.96845,5.27157 0.0723,0.73333 0.83148,1.33333 1.68704,1.33333 0.85555,0 1.83339,0.83352 2.17297,1.85226 0.41158,1.23472 0.0465,1.49943 -1.0949,0.79399 -1.89566,-1.17158 -1.25852,0.18774 2.91833,6.22624 3.30324,4.77552 3.09756,5.97355 -1.28803,7.50238 -2.05484,0.71632 -5.58701,3.15333 -7.84926,5.4156 l -4.1132,4.11318 -5.40612,-2.61194 c -6.10195,-2.94815 -17.00436,-3.361 -14.41575,-0.54591 0.98463,1.07077 2.06589,1.20788 3.06836,0.38908 0.97773,-0.7986 1.84033,-0.79129 2.34164,0.0199 0.43652,0.7063 0.04,1.58808 -0.88129,1.95948 -1.29826,0.52341 -1.28243,0.69896 0.0704,0.78054 0.96958,0.0585 1.32249,0.78947 0.79398,1.64462 -0.59417,0.96138 -0.36524,1.17709 0.60972,0.57453 0.8586,-0.53064 1.24152,-1.48189 0.85094,-2.11388 -0.39059,-0.63199 -0.1004,-1.52595 0.64492,-1.98656 1.18998,-0.73545 1.90605,0.89217 1.5536,3.53136 -0.0645,0.48297 1.37904,0.71388 3.20786,0.51312 1.82883,-0.20075 3.66396,0.18323 4.07808,0.85328 0.42927,0.69457 1.56167,0.54711 2.63424,-0.34305 1.37306,-1.13954 2.35824,-1.1655 3.64676,-0.0961 0.971,0.80587 3.08703,1.2107 4.70228,0.89963 1.66903,-0.32143 2.59388,-0.0107 2.1424,0.71981 -0.43692,0.70696 -1.31149,0.9658 -1.94348,0.57522 -0.63198,-0.39059 -1.50276,-0.1379 -1.93504,0.56154 -0.45476,0.73583 0.67514,1.00678 2.68131,0.64299 2.4476,-0.44384 3.17923,-0.16268 2.48783,0.95604 -0.62174,1.00599 -0.4093,1.23241 0.58164,0.61997 0.8586,-0.53064 1.30253,-1.38318 0.98649,-1.89453 -0.31603,-0.51135 0.87379,-1.61324 2.64403,-2.44867 3.04257,-1.43586 5.96718,-0.0731 4.0206,1.87359 -0.44011,0.44009 -0.80019,0.0648 -0.80019,-0.83407 0,-0.89884 -0.6,-1.26342 -1.33333,-0.8102 -2.1652,1.33818 -1.53023,2.75103 1.33333,2.96674 1.46667,0.11053 2.66667,-0.26184 2.66667,-0.82738 0,-0.56553 0.87361,-1.02825 1.94134,-1.02825 1.06775,0 1.664,0.44876 1.32503,0.99724 -0.33897,0.54847 -0.1144,1.19847 0.49903,1.44444 1.85746,0.74477 9.5538,18.18181 14.29826,32.39453 37.21683,111.4883 -1.79409,236.53142 -95.84753,307.22355 -55.12959,41.43633 -124.0897,61.05328 -192.21612,54.67933 z M 187.29356,447.5634 c 21.24267,-1.78803 57.82304,-4.55324 81.2897,-6.1449 38.04117,-2.5802 42.86139,-3.1619 44.4628,-5.36574 0.98788,-1.35951 5.87937,-11.0443 10.87,-21.52176 30.23416,-63.47455 50.6672,-106.57646 50.6672,-106.8786 0,-0.1912 -9.15,2.25586 -20.33333,5.43788 -30.50026,8.67834 -26.5617,10.45463 -35.87268,-16.17864 -6.80943,-19.4778 -7.70102,-23.11226 -6.50879,-26.53229 0.7598,-2.17959 1.38147,-6.48496 1.38147,-9.56749 v -5.6046 l 17,-7.63237 c 37.28176,-16.73814 38.66637,-17.88502 37.06512,-30.70103 -1.72595,-13.81396 -9.68619,-20.01437 -20.78555,-16.19033 -5.92827,2.04245 -18.57121,10.99416 -18.70579,13.24442 -0.0511,0.85422 -3.61636,3.95311 -7.92285,6.88644 -4.30648,2.93334 -15.36468,10.61191 -24.57378,17.06351 -16.46368,11.53392 -16.74382,11.81533 -16.74382,16.82019 0,6.90537 4.43883,12.58393 9.19348,11.76114 1.91026,-0.33056 4.39696,-1.00164 5.52602,-1.49128 1.4972,-0.64929 2.5043,0.35832 3.72089,3.72275 1.49475,4.13362 1.30321,5.48818 -1.84315,13.03501 -1.93117,4.63211 -4.03864,8.97507 -4.68325,9.65103 -0.6992,0.73321 -4.01113,-1.43016 -8.20967,-5.36262 -3.8707,-3.6254 -8.8362,-7.98165 -11.03442,-9.68057 l -3.99678,-3.08893 3.66344,-3.15116 c 2.0149,-1.73314 3.66344,-4.37994 3.66344,-5.88178 0,-1.50185 0.64043,-2.73062 1.42319,-2.73062 0.88948,0 1.04035,-1.12501 0.40231,-3 -0.56148,-1.65 -0.88112,-5.50173 -0.71031,-8.55941 0.17081,-3.05768 -0.31023,-5.9431 -1.06897,-6.41203 -0.75875,-0.46893 -1.37955,-0.19608 -1.37955,0.60633 0,1.02923 -0.7596,1.05242 -2.57901,0.0787 -1.41846,-0.75912 -4.44826,-1.38023 -6.73288,-1.38023 -11.60118,0 -18.0934,10.88064 -12.70714,21.29653 l 1.98098,3.83078 -6.31431,2.261 c -7.60157,2.72193 -16.25551,11.56765 -21.23476,21.70534 -3.36634,6.85386 -3.4104,7.24826 -1.30341,11.66667 2.36378,4.95689 1.75337,5.76717 -1.87259,2.48572 -2.14366,-1.93999 -3.32728,-0.66969 -16.77165,17.99988 -13.91105,19.31762 -14.64401,20.08704 -19.13189,20.08344 -2.56667,-0.003 -29.76094,-1.51006 -60.43171,-3.35111 -30.670777,-1.84105 -56.353374,-2.98376 -57.072446,-2.53934 -1.603261,0.99088 -1.531129,1.10369 22.381399,35.00582 10.517517,14.91127 19.122757,27.57912 19.122757,28.15079 0,0.57166 -3.75,1.39608 -8.33333,1.83205 -14.100857,1.34127 -14.105737,1.34349 -15.104067,6.84893 -0.46402,2.55895 -0.19403,3.31975 0.93131,2.62426 1.00598,-0.62174 1.23241,-0.4093 0.61997,0.58164 -0.53064,0.8586 -1.52335,1.2159 -2.20601,0.79398 -0.68266,-0.4219 -1.23568,0.31831 -1.22892,1.64492 0.009,1.74032 3.25781,3.86723 11.66666,7.63749 14.481507,6.49307 35.248987,17.93191 42.321057,23.31067 2.93333,2.23099 6.25295,4.07304 7.37695,4.09344 1.124,0.0204 19.424,-1.42585 40.66667,-3.21389 z m -46.46569,-6.41568 c -7.16231,-10.13319 -9.4286,-14.33334 -7.73389,-14.33334 0.69916,0 2.31869,-0.40196 3.59897,-0.89325 1.51979,-0.5832 2.01289,-0.38377 1.42063,0.57453 -0.49892,0.8073 -0.28248,1.85386 0.48097,2.3257 0.76347,0.47185 1.22325,0.0633 1.02176,-0.90787 -0.20151,-0.97117 0.45724,-1.59124 1.46387,-1.37792 1.16476,0.24684 1.54357,-0.35917 1.04185,-1.66667 -1.04136,-2.71372 0.41621,-2.62577 2.44405,0.14747 1.27625,1.74537 1.83331,1.84091 2.68635,0.46065 0.71133,-1.15096 0.5543,-1.41878 -0.46315,-0.78996 -0.84664,0.52326 -1.53935,0.38943 -1.53935,-0.2974 0,-2.19513 3.2211,-3.89138 7,-3.68626 2.3081,0.12533 3.66667,-0.47597 3.66667,-1.62276 0,-2.57169 3.0302,-1.26623 3.43312,1.47904 0.18304,1.24708 -0.21349,1.92978 -0.88116,1.51714 -1.59841,-0.98787 -5.78968,2.19528 -6.23793,4.73756 -0.27558,1.56283 0.0407,1.50011 1.44638,-0.28693 1.24799,-1.58643 2.22472,-1.86127 3.18871,-0.89728 0.964,0.964 2.28795,0.12813 4.32223,-2.72873 1.6129,-2.26512 3.4187,-3.81796 4.01286,-3.45075 0.59416,0.36722 1.78458,-0.18093 2.64535,-1.21809 1.53501,-1.84959 6.19561,-2.06763 8.86969,-0.41496 1.65668,1.02388 4.57202,0.64741 7.07343,-0.91343 1.2654,-0.78958 1.57189,-0.68182 0.94513,0.3323 -0.62972,1.01888 0.64736,1.4416 3.97711,1.31641 3.5376,-0.13293 5.08277,-0.86552 5.54371,-2.62812 0.35148,-1.34407 1.20449,-2.44375 1.89557,-2.44375 0.69108,0 0.81796,0.75 0.28196,1.66667 -0.536,0.91667 0.17859,0.72249 1.58799,-0.43151 4.03706,-3.3055 8.17142,-1.50804 7.35404,3.19728 -0.10494,0.60451 0.38248,0.74472 1.08332,0.31159 0.70082,-0.43315 1.6511,-0.17773 2.11172,0.56756 0.74234,1.20113 -0.16644,1.59867 -2.8375,1.2412 -0.468,-0.0627 -1.22421,0.49012 -1.68046,1.22833 -0.74467,1.20491 -54.96808,28.21888 -56.64195,28.21888 -0.38055,0 -3.34248,-3.75 -6.58205,-8.33333 z m 9.39392,-12.93203 c -0.14799,-1.96455 -0.61582,-2.25008 -1.91714,-1.17008 -2.03024,1.68495 -2.30909,2.95604 -0.38805,1.76877 0.73333,-0.45322 1.33333,-0.18864 1.33333,0.58798 0,0.77661 0.26271,1.41202 0.5838,1.41202 0.3211,0 0.49572,-1.16941 0.38806,-2.59869 z m 27.76661,-5.51748 c 0.49272,-0.79724 0.25356,-2.0918 -0.53147,-2.87682 -1.66386,-1.66387 -5.9923,1.18301 -4.78029,3.14407 1.01484,1.64206 4.23177,1.4802 5.31176,-0.26725 z m -4.05836,-1.2389 c 0.46061,-0.7453 1.39603,-1.0099 2.07869,-0.58798 1.84939,1.14297 1.50455,1.94305 -0.83749,1.94305 -1.14328,0 -1.70181,-0.60978 -1.2412,-1.35507 z m -2.53677,-2.27936 c -1.40987,-1.40987 -2.58168,-0.8558 -2.90918,1.37552 -0.28738,1.95806 0.007,2.10934 1.57179,0.81 1.05884,-0.87876 1.66067,-1.86226 1.33739,-2.18552 z m 11.19,2.3011 c 0,-0.73333 -0.63542,-1.33333 -1.41203,-1.33333 -0.77661,0 -1.0412,0.6 -0.58797,1.33333 0.45322,0.73333 1.08864,1.33333 1.41202,1.33333 0.32339,0 0.58798,-0.6 0.58798,-1.33333 z m 25.0756,-6.45596 c -0.95824,-1.35077 -2.62679,-2.74561 -3.70788,-3.09965 -1.36104,-0.44571 -1.0129,-0.89283 1.13188,-1.45369 1.70362,-0.44551 2.73605,-0.44856 2.29428,-0.007 -0.44179,0.44177 0.11266,2.20112 1.23218,3.90965 2.40107,3.6645 1.58427,4.22351 -0.95046,0.65048 z m -25.0756,-40.2107 c 0,-0.73334 0.63541,-1.33334 1.41202,-1.33334 0.77662,0 1.0412,0.6 0.58798,1.33334 -0.45323,0.73333 -1.08864,1.33333 -1.41203,1.33333 -0.32339,0 -0.58797,-0.6 -0.58797,-1.33333 z m -6.66667,-1.54036 c 0,-0.53291 0.64091,-1.36503 1.42423,-1.84915 0.78333,-0.48413 1.10953,-1.70032 0.7249,-2.70267 -0.38464,-1.00233 -0.22554,-2.11525 0.35355,-2.47314 0.57908,-0.3579 1.10469,0.0729 1.16803,0.9573 0.0633,0.8844 0.40413,2.82944 0.75732,4.3223 0.47401,2.0036 -0.0216,2.71429 -1.89295,2.71429 -1.39429,0 -2.53508,-0.43603 -2.53508,-0.96893 z m -4.4788,-0.71623 c -0.50779,-0.50779 -1.95779,-1.09279 -3.22223,-1.30001 -1.26444,-0.20723 -21.79897,-6.99899 -45.6323,-15.09282 -23.833327,-8.09382 -41.833327,-14.41457 -39.999997,-14.04612 12.11809,2.43546 84.742097,21.30055 85.063927,22.09652 0.21849,0.54043 1.49831,0.69467 2.84404,0.34275 3.28455,-0.85893 7.30601,4.65689 5.22413,7.1654 -1.6277,1.96125 -2.90205,2.2098 -4.27757,0.83428 z m 3.54236,-3.96564 c -0.37521,-0.97777 -0.85381,-1.77777 -1.06356,-1.77777 -0.20975,0 -0.68835,0.8 -1.06356,1.77777 -0.37521,0.97779 0.10333,1.77779 1.06356,1.77779 0.96017,0 1.43877,-0.8 1.06356,-1.77779 z m 91.67994,-43.3517 c 0.0423,-6.101 0.49227,-13.20218 1,-15.78039 l 0.92316,-4.68767 7.56256,2.021 7.56258,2.02099 -5.68494,13.33333 c -4.44192,10.41802 -6.3141,13.4265 -8.56256,13.7594 -2.75656,0.40815 -2.87441,-0.0407 -2.8008,-10.66666 z m 14.99239,5.2406 c 5.00811,-12.13456 9.65647,-21 11.01077,-21 0.92563,0 3.23628,-1.84604 5.13482,-4.10231 l 3.45185,-4.10229 0.2,11.43562 c 0.11,6.2896 0.26,12.131 0.33333,12.9809 0.0733,0.84989 -3.76666,2.64754 -8.53333,3.9948 -10.22063,2.88874 -12.5274,3.04653 -11.59744,0.79328 z m 71.59744,-4.17138 c 0,-0.27758 3.45,-3.38237 7.66666,-6.89952 l 7.66667,-6.39482 -6.61655,6.89952 c -5.75612,6.00232 -8.71678,8.17432 -8.71678,6.39482 z m -45.80035,-13.03345 c -0.47648,-6.71267 -0.81905,-16.76267 -0.76127,-22.33333 l 0.10507,-10.12851 7.01115,20.66667 7.01114,20.66666 -5.44952,1.64643 c -2.99724,0.90553 -5.80969,1.65553 -6.24988,1.66667 -0.44018,0.0107 -1.19018,-5.47194 -1.66666,-12.18459 z M 83.494093,414.56439 c -0.42564,-1.06364 -0.74158,-0.74771 -0.80556,0.80556 -0.0579,1.40554 0.25724,2.19305 0.7003,1.75 0.44305,-0.44306 0.49042,-1.59307 0.10526,-2.55556 z M 45.097018,244.64377 c 0.450775,-0.50651 -0.230409,-0.54415 -1.513743,-0.0836 -1.40031,0.50246 -2.341497,0.18754 -2.35375,-0.78756 -0.01291,-1.02768 -0.495475,-0.88979 -1.312916,0.37512 -0.835084,1.2922 -1.299725,1.41916 -1.312916,0.35873 -0.03392,-2.72617 -6.34005,-3.56291 -8.742908,-1.16005 -1.174058,1.17406 -1.527205,2.13465 -0.78477,2.13465 0.742436,0 1.738709,-0.62913 2.213942,-1.39808 0.590679,-0.95573 1.459283,-0.90408 2.745356,0.16327 1.034712,0.85873 1.881296,1.06786 1.881296,0.46473 0,-0.60312 0.671735,-0.42485 1.492744,0.39616 1.510451,1.51045 6.181594,1.22889 7.687665,-0.46337 z m 16.76265,-4.40391 c 0.421908,-0.68267 0.04273,-1.68889 -0.842621,-2.23607 -0.88535,-0.54717 -1.846383,-0.2849 -2.13563,0.58284 -0.289246,0.86774 -1.074657,1.23856 -1.745355,0.82404 -0.6707,-0.4145 -1.219454,-0.11825 -1.219454,0.65836 0,1.74014 4.886372,1.88059 5.94306,0.17083 z m 408.254522,-123.09213 2.82648,-9.66667 -2.84538,-2.86436 c -2.6556,-2.67332 -4.47178,-2.90352 -27.23022,-3.45152 -15.80492,-0.38056 -23.92839,-0.13069 -23.08756,0.71014 1.27753,1.27753 45.4901,24.77181 46.82462,24.88231 0.37706,0.0312 1.95748,-4.29323 3.51206,-9.6099 z m -40.86427,-12.43663 -4.66666,-1.90042 4.66666,0.69079 c 2.56667,0.37993 5.41667,0.78077 6.33334,0.89075 0.91666,0.10997 1.66666,0.69996 1.66666,1.31107 0,1.54741 -2.53614,1.23287 -8,-0.99219 z M 23.876868,141.55532 c 0.763078,-1.42583 2.046424,-2.9997 2.85188,-3.4975 0.805456,-0.4978 0.433224,0.66879 -0.827182,2.59242 -2.66883,4.07314 -4.050819,4.69092 -2.024698,0.90508 z m 475.388092,-0.90508 c -1.2604,-1.92363 -1.63264,-3.09022 -0.82717,-2.59242 1.53918,0.95128 4.64356,6.08991 3.67905,6.08991 -0.30812,0 -1.59147,-1.57388 -2.85188,-3.49749 z M 180.24993,13.8953 c 1.28334,-0.33537 3.38334,-0.33537 4.66667,0 1.28333,0.33537 0.23333,0.609764 -2.33333,0.609764 -2.56667,0 -3.61667,-0.274394 -2.33334,-0.609764 z m 160,0 c 1.28333,-0.33537 3.38333,-0.33537 4.66666,0 1.28334,0.33537 0.23334,0.609764 -2.33333,0.609764 -2.56667,0 -3.61667,-0.274394 -2.33333,-0.609764 z"
       id="path122" />
    <path
       style="fill:#edf1f6;stroke-width:1.33333"
       d="M 81.786603,556.55523 C 67.188984,545.57835 42.555146,521.77979 30.990028,507.48105 18.839808,492.4589 5.235274,471.61354 -3.260024,455.00188 c -7.389445,-14.44928 -15.499921,-33.60465 -15.477795,-36.55553 0.0067,-0.89758 2.62814,4.77103 5.825355,12.59693 7.554701,18.49181 17.588509,37.1653 28.892755,53.7711 10.05694,14.77352 30.508802,39.87196 31.600614,38.78015 0.384184,-0.38419 -2.536674,-4.19291 -6.490796,-8.46383 C 20.17327,492.53801 0.030439,460.02854 -12.67928,428.34972 l -6.070775,-15.13135 v -94.40398 -94.40398 l 6.070775,-15.13135 c 7.327272,-18.26313 16.78818,-36.3497 27.386362,-52.35496 4.330362,-6.53966 7.668052,-12.09562 7.417088,-12.34658 -0.830143,-0.83015 -15.531042,22.15278 -22.435726,35.07532 -3.733284,6.98707 -9.403693,19.10677 -12.600908,26.93266 -3.197215,7.82589 -5.818624,13.49451 -5.825355,12.59693 -0.01913,-2.55153 7.405917,-20.59644 13.460098,-32.71173 12.313422,-24.64092 30.840513,-51.65203 46.495913,-67.78755 l 8.28145,-8.53542 -6.458183,7.80409 c -3.552001,4.29224 -6.293318,8.38684 -6.091814,9.0991 0.201503,0.71226 -0.218393,0.93362 -0.933103,0.49191 -1.24527,-0.76962 -3.693405,2.4824 -3.96845,5.27157 -0.07232,0.73333 -0.831483,1.33333 -1.687039,1.33333 -0.855554,0 -1.833394,0.83352 -2.172976,1.85226 -0.425145,1.27544 -0.05585,1.50519 1.185852,0.73778 0.9918,-0.61297 0.455167,0.95352 -1.192517,3.48107 -10.367614,15.90397 -22.27044,41.76213 -28.935309,62.86017 -20.80233,65.85102 -15.347278,142.44948 14.432148,202.65255 3.876954,7.83777 6.556432,13.94608 5.954396,13.574 -0.602035,-0.37208 -0.08556,1.43949 1.147729,4.02572 1.233286,2.58622 2.702006,4.41814 3.263822,4.07092 0.561816,-0.34723 1.455646,0.0712 1.986292,0.92978 0.602563,0.97496 0.38685,1.2039 -0.574536,0.60972 -3.003275,-1.85612 -1.452832,2.32766 5.320357,14.35668 22.705712,40.32482 52.933942,72.79985 90.507189,97.23445 9.56264,6.21876 31.17343,17.6719 43.96643,23.30102 2.53732,1.11646 -5.07644,1.48826 -31.88279,1.55696 l -35.216147,0.0902 -12.19052,-9.16298 c -6.70478,-5.03964 -15.925889,-12.62126 -20.491341,-16.84808 -4.565452,-4.2268 -8.621102,-7.36481 -9.012557,-6.97336 -0.899155,0.89916 15.442086,15.00498 29.202458,25.20767 5.76867,4.27721 9.92803,7.77675 9.24303,7.77675 -0.685,0 -6.58696,-4.01662 -13.11546,-8.92582 z M 55.916608,531.7305 c 0,-0.22947 -1.95,-2.17947 -4.333333,-4.33333 l -4.333333,-3.91612 3.916121,4.33333 c 3.650375,4.03928 4.750545,4.9462 4.750545,3.91612 z M 25.901566,140.65024 c 1.260406,-1.92363 1.632638,-3.09022 0.827182,-2.59242 -1.539193,0.95128 -4.643569,6.08991 -3.679064,6.08991 0.308128,0 1.591475,-1.57388 2.851882,-3.49749 z M 359.91659,563.83385 c 59.827,-26.3248 103.43641,-65.41409 134.47362,-120.53547 6.7732,-12.02902 8.32364,-16.2128 5.32036,-14.35668 -0.96138,0.59418 -1.17709,0.36524 -0.57453,-0.60972 0.53064,-0.8586 1.42448,-1.27701 1.98629,-0.92978 0.56182,0.34722 2.03054,-1.4847 3.26383,-4.07092 1.23328,-2.58623 1.69951,-4.36675 1.03605,-3.95671 -0.66345,0.41004 2.00432,-5.65966 5.92839,-13.48821 30.5082,-60.86416 35.58474,-139.68985 13.29632,-206.45798 -4.74447,-14.21272 -12.4408,-31.64976 -14.29827,-32.39453 -0.61344,-0.24597 -0.838,-0.89597 -0.49902,-1.44444 0.33897,-0.54848 -0.25728,-0.99724 -1.32503,-0.99724 -1.06773,0 -1.94135,0.46272 -1.94135,1.02825 0,0.56554 -1.2,0.93786 -2.66666,0.82738 -2.86356,-0.21571 -3.49854,-1.62856 -1.33334,-2.96674 0.73334,-0.45322 1.33334,-0.0887 1.33334,0.8102 0,0.89884 0.36008,1.27416 0.80018,0.83407 1.94659,-1.9466 -0.97802,-3.30945 -4.0206,-1.87359 -1.77024,0.83543 -2.96005,1.93732 -2.64402,2.44867 0.31604,0.51135 -0.12787,1.36389 -0.9865,1.89453 -0.99093,0.61244 -1.20337,0.38602 -0.58164,-0.61997 0.6914,-1.11872 -0.0403,-1.39988 -2.48782,-0.95604 -2.00618,0.36379 -3.13607,0.0928 -2.68131,-0.64299 0.43228,-0.69944 1.30305,-0.95213 1.93504,-0.56154 0.63199,0.39058 1.50656,0.13173 1.94348,-0.57522 0.45148,-0.7305 -0.47337,-1.04124 -2.1424,-0.71981 -1.61525,0.31107 -3.73128,-0.0937 -4.70228,-0.89963 -1.28852,-1.06936 -2.27371,-1.0434 -3.64676,0.0961 -1.07257,0.89016 -2.20497,1.03762 -2.63424,0.34305 -0.41412,-0.67005 -2.24925,-1.05403 -4.07808,-0.85328 -1.82883,0.20076 -3.27237,-0.0301 -3.20787,-0.51312 0.35246,-2.63919 -0.36361,-4.26681 -1.5536,-3.53136 -0.74529,0.46061 -1.0355,1.35457 -0.64492,1.98656 0.39059,0.63199 0.008,1.58324 -0.85093,2.11388 -0.93045,0.57505 -1.2052,0.38896 -0.68011,-0.46065 0.48455,-0.78402 0.1272,-1.72935 -0.79398,-2.10075 -1.29826,-0.52341 -1.28243,-0.69896 0.0704,-0.78055 0.95994,-0.0579 1.35652,-0.7344 0.88129,-1.50334 -0.55169,-0.89266 -1.42367,-0.94099 -2.41203,-0.13371 -1.00246,0.8188 -2.08373,0.68169 -3.06836,-0.38908 -2.58861,-2.81509 8.3138,-2.40224 14.41575,0.54591 l 5.40612,2.61194 4.1132,-4.11318 c 2.26225,-2.26227 5.79443,-4.69928 7.84927,-5.4156 4.38558,-1.52883 4.59126,-2.72686 1.28802,-7.50238 -4.17685,-6.0385 -4.81398,-7.39782 -2.91833,-6.22624 1.14144,0.70544 1.50648,0.44073 1.09491,-0.79399 -0.3396,-1.01874 -1.31744,-1.85226 -2.17299,-1.85226 -0.85556,0 -1.45417,-0.3 -1.33025,-0.66667 0.54032,-1.59876 -3.14964,-6.6648 -4.32524,-5.93823 -0.71471,0.44171 -1.1346,0.22035 -0.93311,-0.49191 0.20151,-0.71226 -2.53981,-4.80686 -6.09181,-9.0991 l -6.45819,-7.80409 8.28145,8.53542 c 20.07464,20.69027 42.93594,56.62222 55.15006,86.68138 l 3.41942,8.41524 v 105.03462 105.03462 l -3.43218,8.48268 c -9.55474,23.61465 -27.45798,53.57332 -44.90912,75.14936 -11.56512,14.29874 -36.19896,38.0973 -50.79659,49.07418 -6.52849,4.9092 -12.43045,8.92582 -13.11545,8.92582 -0.68501,0 3.47436,-3.49954 9.24303,-7.77675 13.76037,-10.20269 30.10161,-24.30851 29.20246,-25.20767 -0.39147,-0.39145 -4.44711,2.74656 -9.01256,6.97336 -4.56545,4.22682 -13.78656,11.80844 -20.49134,16.84808 l -12.19052,9.16298 -35.21615,-0.0902 c -26.80636,-0.0687 -34.42012,-0.4405 -31.8828,-1.55696 z M 489.4838,510.81438 c 19.48023,-23.22153 35.86361,-49.62584 47.02309,-75.78481 2.60867,-6.11499 4.73802,-11.81499 4.73187,-12.66667 -0.007,-0.85169 -2.90483,5.14219 -6.44153,13.31972 -13.57911,31.39738 -29.70486,55.91323 -57.48039,87.38699 -4.72987,5.35962 -6.31808,7.64477 -3.52935,5.0781 2.78872,-2.56666 9.85207,-10.36666 15.69631,-17.33333 z m 47.06341,-308.12096 c -7.04692,-16.51827 -17.06956,-34.76086 -27.58824,-50.21445 -5.1171,-7.51783 -9.84457,-14.00297 -10.50549,-14.41144 -0.66092,-0.40848 3.87552,6.81231 10.081,16.04619 10.43927,15.53386 26.1068,45.13943 30.23276,57.12823 0.96427,2.80183 1.93548,4.54739 2.15827,3.87903 0.22278,-0.66836 -1.74746,-6.26076 -4.3783,-12.42756 z M 242.94197,561.89039 c 1.29729,-0.33805 3.09729,-0.31582 4,0.0495 0.90271,0.36524 -0.15871,0.64183 -2.35871,0.61465 -2.2,-0.0272 -2.93858,-0.326 -1.64129,-0.66405 z m 36,0 c 1.29729,-0.33805 3.09729,-0.31582 4,0.0495 0.90271,0.36524 -0.15871,0.64183 -2.35871,0.61465 -2.2,-0.0272 -2.93858,-0.326 -1.64129,-0.66405 z m -49.94204,-1.32016 c 0.96249,-0.38516 2.11249,-0.3378 2.55556,0.1052 0.44305,0.44306 -0.34445,0.75819 -1.75,0.7003 -1.55327,-0.064 -1.8692,-0.37992 -0.80556,-0.80555 z m 65.33333,0 c 0.9625,-0.38516 2.1125,-0.3378 2.55556,0.1052 0.44306,0.44306 -0.34445,0.75819 -1.75,0.7003 -1.55326,-0.064 -1.8692,-0.37992 -0.80556,-0.80555 z M 89.079863,501.81438 c -1.65849,-2.11474 -1.61133,-2.1619 0.50341,-0.50341 1.28333,1.00646 2.33333,2.05646 2.33333,2.33333 0,1.09739 -1.09491,0.39108 -2.83674,-1.82992 z m 344.170057,1.82992 c 0,-0.27687 1.05,-1.32687 2.33334,-2.33333 2.11474,-1.65849 2.1619,-1.61133 0.50341,0.50341 -1.74183,2.221 -2.83675,2.92731 -2.83675,1.82992 z m -351.459997,-7.82992 -2.53998,-3 3,2.53999 c 2.81926,2.38696 3.60699,3.46001 2.53998,3.46001 -0.25301,0 -1.60301,-1.35 -3,-3 z m 360.126667,0.33334 c 1.32732,-1.46667 2.71331,-2.66667 3.07997,-2.66667 0.36667,0 -0.41932,1.2 -1.74664,2.66667 -1.32732,1.46666 -2.7133,2.66666 -3.07997,2.66666 -0.36667,0 0.41932,-1.2 1.74664,-2.66666 z m -375.405093,-14.33334 -4.594889,-5 5,4.5949 c 4.653892,4.27681 5.613049,5.4051 4.594889,5.4051 -0.222811,0 -2.472811,-2.25 -5,-5 z m 390.738423,0.33334 c 2.48771,-2.56667 4.82311,-4.66667 5.18978,-4.66667 0.36666,0 -1.36874,2.1 -3.85644,4.66667 -2.48771,2.56666 -4.82311,4.66666 -5.18978,4.66666 -0.36666,0 1.36874,-2.1 3.85644,-4.66666 z m -404.793328,-15.66667 -2.539983,-3 2.999999,2.53999 c 2.81926,2.38696 3.606988,3.46001 2.539984,3.46001 -0.253009,0 -1.603009,-1.35 -3,-3 z m 418.793328,0.33333 c 1.32732,-1.46666 2.71331,-2.66666 3.07997,-2.66666 0.36667,0 -0.41932,1.2 -1.74664,2.66666 -1.32732,1.46667 -2.7133,2.66667 -3.07997,2.66667 -0.36667,0 0.41932,-1.2 1.74664,-2.66667 z m -425.459994,-8.33333 -2.539984,-3 3,2.53999 c 2.81926,2.38696 3.606988,3.46001 2.539984,3.46001 -0.253009,0 -1.603009,-1.35 -3,-3 z m 432.126664,0.33333 c 1.32732,-1.46666 2.7133,-2.66666 3.07997,-2.66666 0.36667,0 -0.41932,1.2 -1.74664,2.66666 -1.32732,1.46667 -2.71331,2.66667 -3.07997,2.66667 -0.36667,0 0.41932,-1.2 1.74664,-2.66667 z M 41.079869,452.48105 c -1.658495,-2.11475 -1.611335,-2.16191 0.503407,-0.50341 2.220997,1.74182 2.927305,2.83674 1.829926,2.83674 -0.276875,0 -1.326874,-1.05 -2.333333,-2.33333 z m 440.170051,1.82992 c 0,-0.27687 1.05,-1.32687 2.33333,-2.33333 2.11475,-1.6585 2.16191,-1.61134 0.50342,0.50341 -1.74183,2.221 -2.83675,2.92731 -2.83675,1.82992 z m -330.41109,-4.92992 c 0.26277,-0.78833 0.91277,-1.38833 1.44444,-1.33333 0.53166,0.0549 2.91666,0.15981 5.3,0.2329 4.10569,0.12587 4.15822,0.18899 1,1.20043 -4.91298,1.57341 -8.28772,1.52983 -7.74444,-0.1 z m 17.74444,-1.23333 c 0.45322,-0.73334 2.43864,-1.29116 4.41202,-1.23962 3.20376,0.0836 3.30242,0.21642 0.92131,1.23962 -3.70429,1.59178 -6.31712,1.59178 -5.33333,0 z m 21.66666,-2.21638 c 0.91667,-0.36988 2.41667,-0.36988 3.33334,0 0.91666,0.36988 0.16666,0.67252 -1.66667,0.67252 -1.83333,0 -2.58333,-0.30264 -1.66667,-0.67252 z m 7.33334,-0.036 c 1.28333,-0.33536 3.38333,-0.33536 4.66666,0 1.28334,0.33538 0.23334,0.60978 -2.33333,0.60978 -2.56667,0 -3.61667,-0.2744 -2.33333,-0.60978 z m 14,-1.3552 c 1.65,-0.31781 4.35,-0.31781 6,0 1.65,0.3178 0.3,0.57783 -3,0.57783 -3.3,0 -4.65,-0.26003 -3,-0.57783 z m -50.33334,-1.72576 c 1.1,-0.71088 2.6,-1.29249 3.33334,-1.29249 0.73333,0 0.43333,0.58161 -0.66667,1.29249 -1.1,0.71088 -2.6,1.2925 -3.33333,1.2925 -0.73334,0 -0.43334,-0.58162 0.66666,-1.2925 z m 70.34888,0.39032 c 1.65855,-0.31892 4.05855,-0.30681 5.33333,0.0269 1.27479,0.33372 -0.0823,0.59466 -3.01554,0.57986 -2.93334,-0.0148 -3.97634,-0.28785 -2.31779,-0.60677 z m 18.66667,-1.33333 c 1.65854,-0.31892 4.05854,-0.30681 5.33333,0.0269 1.27479,0.33372 -0.0823,0.59467 -3.01555,0.57987 -2.93333,-0.0148 -3.97633,-0.28785 -2.31778,-0.60677 z m -82.70444,-1.88911 c 0.90445,-0.91122 1.98032,-1.32089 2.39084,-0.91037 0.41052,0.41052 -0.32948,1.15607 -1.64444,1.65677 -1.90027,0.72358 -2.05341,0.57043 -0.7464,-0.7464 z m 101.3711,0.55578 c 1.65855,-0.31892 4.05855,-0.30682 5.33334,0.0269 1.27478,0.33372 -0.0823,0.59467 -3.01555,0.57987 -2.93333,-0.0148 -3.97633,-0.28786 -2.31779,-0.60678 z m 20,-1.33334 c 1.65855,-0.31892 4.05855,-0.30681 5.33334,0.0269 1.27478,0.33372 -0.0823,0.59466 -3.01555,0.57986 -2.93333,-0.0148 -3.97633,-0.28785 -2.31779,-0.60677 z m 19.83,-1.4549 c 2.59333,-0.85251 1.20476,-3.05292 -15.66586,-24.82511 -10.18128,-13.13932 -18.36178,-24.01182 -18.17888,-24.16112 15.22846,-12.43022 24.34226,-19.02186 25.39804,-18.36934 0.74058,0.45769 0.96041,0.20746 0.48852,-0.55608 -1.1644,-1.88404 2.59839,-4.8323 4.59357,-3.5992 0.95908,0.59274 1.24906,0.42328 0.72545,-0.42395 -0.4878,-0.78928 6.32712,-7.28843 15.46065,-14.74427 8.98314,-7.33306 20.53296,-16.80938 25.6663,-21.05847 5.13333,-4.24908 8.50986,-6.70687 7.50341,-5.46175 -2.86479,3.54415 0.33509,2.65061 3.82992,-1.06945 1.72233,-1.83334 2.65345,-3.33334 2.06916,-3.33334 -0.58429,0 -0.32089,-0.8934 0.58532,-1.98532 0.90623,-1.09192 2.13381,-1.68486 2.72797,-1.31765 1.50374,0.92936 6.75915,-6.73675 5.57815,-8.13691 -0.52833,-0.62638 0.15519,-0.28058 1.51893,0.76844 1.46646,1.12802 1.87164,2.10994 0.9917,2.40326 -0.81831,0.27277 -1.0914,1.1374 -0.60686,1.92141 0.49415,0.79956 0.25772,1.04027 -0.53845,0.5482 -1.46717,-0.90676 -52.32592,51.3665 -52.32592,53.78125 0,0.74285 -0.64285,1.35065 -1.42857,1.35065 -1.654,0 -4.46074,2.77318 -4.8125,4.75496 -0.13253,0.74698 1.06742,1.42154 2.66667,1.49903 1.59925,0.0775 2.15773,-0.14796 1.24107,-0.50099 -0.91667,-0.35304 -1.66667,-1.26536 -1.66667,-2.02737 0,-0.90897 0.61541,-0.87473 1.78935,0.0996 0.98413,0.81676 2.16562,1.10875 2.62552,0.64884 0.4599,-0.45989 0.29145,1.06317 -0.37432,3.3846 -1.03287,3.60141 -0.8801,4.16603 1.04114,3.84775 1.47728,-0.24475 2.1827,0.46094 2.05118,2.05197 -0.128,1.54825 0.45914,2.17188 1.62397,1.72489 1.00344,-0.38505 2.23635,-0.0336 2.7398,0.78102 0.50692,0.82021 0.31549,1.11037 -0.42899,0.65025 -0.73941,-0.45699 -2.01694,0.64525 -2.83897,2.44941 -1.14896,2.5217 -1.11697,3.2058 0.13836,2.95819 0.89813,-0.17715 1.46809,0.47251 1.26659,1.44368 -0.2015,0.97117 0.25829,1.37972 1.02176,0.90787 0.76345,-0.47184 1.07546,-1.36378 0.69334,-1.98206 -0.38212,-0.61829 0.30822,-0.97696 1.53408,-0.79704 1.22587,0.17992 2.36954,1.28571 2.5415,2.45731 0.21056,1.43464 -0.40628,1.90157 -1.88918,1.43005 -1.89444,-0.60238 -1.92261,-0.49929 -0.2018,0.73856 1.1,0.7913 1.47654,1.4479 0.83675,1.45912 -0.6398,0.0107 -0.46675,0.85968 0.38456,1.88544 1.22183,1.47222 -0.37871,5.75483 -7.59915,20.33334 -7.7826,15.71355 -9.62989,18.50838 -12.38456,18.73705 -2.97088,0.2466 -3.00318,0.19168 -0.39205,-0.66667 z m -0.29715,-60.46009 c -1.2177,-1.97031 -3.53861,-1.24164 -2.73289,0.85801 0.71985,1.87592 -0.75116,2.66503 -3.8155,2.04679 -0.73334,-0.14796 -0.88203,0.1823 -0.33043,0.7339 0.5516,0.5516 -0.0484,2.21388 -1.33333,3.69398 -1.28494,1.48008 0.19594,0.69266 3.29085,-1.74983 3.0949,-2.44248 5.30949,-4.95477 4.9213,-5.58285 z m 11.4516,6.85801 c 0.78494,-1.46667 1.12716,-2.66667 0.7605,-2.66667 -0.36667,0 -1.3089,1.2 -2.09383,2.66667 -0.78493,1.46667 -1.12716,2.66667 -0.76049,2.66667 0.36666,0 1.30889,-1.2 2.09382,-2.66667 z m -13.33333,-9.85735 c 0,-0.28821 -0.93116,-0.88133 -2.06925,-1.31806 -1.18656,-0.45532 -1.72176,-0.2318 -1.25464,0.52401 0.78301,1.26695 3.32389,1.87393 3.32389,0.79405 z m 8.53296,-9.02565 c -0.45459,-0.73553 -1.54153,-0.60648 -2.65167,0.31485 -2.53425,2.10324 -2.37144,2.44667 0.77038,1.62507 1.45842,-0.38139 2.305,-1.25435 1.88129,-1.93992 z m -139.55518,70.71754 c 0.90445,-0.91122 1.98032,-1.32089 2.39084,-0.91037 0.41052,0.41052 -0.32948,1.15607 -1.64444,1.65677 -1.90027,0.72358 -2.05341,0.57043 -0.7464,-0.7464 z m 320.35555,-2.50121 c 0.78493,-1.46667 1.72716,-2.66667 2.09382,-2.66667 0.36667,0 0.0244,1.2 -0.76049,2.66667 -0.78493,1.46667 -1.72716,2.66667 -2.09383,2.66667 -0.36666,0 -0.0244,-1.2 0.7605,-2.66667 z M 124.8003,420.14772 c -4.85878,-6.6 -9.38108,-12 -10.04959,-12 -1.69808,0 -3.02507,3.92201 -1.958,5.78699 0.48662,0.85049 0.39377,1.10154 -0.20633,0.55792 -1.38485,-1.25456 -4.88855,1.55576 -3.91119,3.13716 0.40108,0.64896 -0.18844,2.49008 -1.31004,4.0914 -1.62408,2.31869 -1.70767,3.31343 -0.41058,4.88582 1.90614,2.31069 1.9726,2.33268 -11.464457,-3.79263 -7.26604,-3.31222 -10.23768,-5.36671 -10.23872,-7.07869 -8e-4,-1.32661 0.55709,-2.06682 1.23975,-1.64492 0.68266,0.42192 1.67537,0.0647 2.20601,-0.79398 0.61244,-0.99094 0.38601,-1.20338 -0.61997,-0.58164 -1.12534,0.69549 -1.39533,-0.0653 -0.93131,-2.62426 0.99833,-5.50544 1.00321,-5.50766 15.104067,-6.84893 4.80445,-0.457 8.31302,-1.42115 8.28538,-2.27679 -0.0264,-0.81626 -1.44659,-3.1939 -3.15603,-5.28365 l -3.10807,-3.79952 4.5338,-4.53381 c 2.49359,-2.49359 5.26381,-4.51556 6.15602,-4.49326 0.89223,0.0223 0.42223,0.72103 -1.04444,1.55272 -2.77217,1.57199 -4.8476,4.00358 -4.07588,4.7753 0.24519,0.24518 2.08805,-1.07619 4.09525,-2.9364 2.00719,-1.86022 4.11801,-3.09262 4.6907,-2.73867 0.57268,0.35393 0.79055,-0.70731 0.48413,-2.35832 -0.3064,-1.65101 -0.20045,-2.25184 0.23547,-1.33517 1.15119,2.42084 3.66913,2.04929 2.72825,-0.40259 -0.43672,-1.13808 -0.29178,-1.75883 0.3221,-1.37944 0.61388,0.3794 2.26994,-0.38512 3.68016,-1.69893 1.41021,-1.31382 3.32125,-2.13635 4.24674,-1.82784 0.92551,0.30849 2.50422,-0.1208 3.50826,-0.95414 1.36774,-1.13512 1.95653,-1.12196 2.34802,0.0525 0.37894,1.1368 1.05575,1.06049 2.46299,-0.27768 1.06727,-1.01488 3.70265,-1.97884 5.85641,-2.14214 2.15376,-0.16328 4.85376,-1.2978 6,-2.52114 1.14624,-1.22335 1.47745,-1.89296 0.73603,-1.48802 -0.74142,0.40494 -2.5061,-0.11053 -3.92151,-1.14552 -3.5096,-2.56628 -2.90359,-2.44724 10.35276,2.0337 6.37091,2.1535 11.58345,3.58004 11.58345,3.17008 0,-0.40996 0.87372,-0.0203 1.9416,0.866 2.11218,1.75294 5.25468,0.65076 3.98802,-1.39875 -0.4293,-0.69463 -1.33222,-0.922 -2.00647,-0.50528 -0.67427,0.41671 -0.84931,-0.22381 -0.38899,-1.42339 0.66984,-1.74556 1.06204,-1.82594 1.96431,-0.40258 0.62005,0.97816 1.13656,1.14846 1.14779,0.37846 0.0107,-0.77 -0.69959,-2.12 -1.57959,-3 -1.24444,-1.24444 -1.10313,-1.6 0.63593,-1.6 1.22976,0 3.2011,-1.47302 4.38074,-3.27338 1.7966,-2.74196 2.54522,-3.02334 4.61116,-1.73314 1.35649,0.84714 2.13002,2.08444 1.71896,2.74958 -0.428,0.69252 0.60598,0.79258 2.41957,0.23416 1.74184,-0.53634 2.72629,-0.50995 2.18769,0.0587 -1.38582,1.463 3.06782,4.53782 6.64595,4.5884 1.65,0.0233 3,-0.16014 3,-0.4077 0,-0.24756 4.71715,-14.24018 10.48256,-31.09469 l 10.48255,-30.64459 2.96442,2.40044 2.96441,2.40043 -4.20963,7.35769 c -4.50079,7.86655 -6.83828,20.60319 -4.34451,23.67255 0.8786,1.0814 0.97364,4.09647 0.26344,8.35827 -0.61101,3.66667 -1.14671,9.55611 -1.19043,13.08766 -0.0437,3.53154 -0.74142,7.65785 -1.55048,9.16957 -1.91961,3.58685 -1.01106,4.09815 12.56479,7.07097 10.51624,2.30284 38.13045,9.40458 42.23954,10.86303 1.13954,0.40447 -12.00294,7.54677 -30.54724,16.60097 -17.90098,8.7401 -32.85098,15.58735 -33.22222,15.21611 -0.37124,-0.37124 0.0604,-0.67497 0.95927,-0.67497 0.89884,0 1.25737,-0.60979 0.79676,-1.35508 -0.46062,-0.7453 -1.4109,-1.00071 -2.11172,-0.56756 -0.70084,0.43313 -1.18832,0.29292 -1.08332,-0.31159 0.81738,-4.70532 -3.31698,-6.50279 -7.35404,-3.19728 -1.4094,1.154 -2.12399,1.34817 -1.58799,0.43151 0.536,-0.91667 0.40912,-1.66667 -0.28196,-1.66667 -0.69108,0 -1.54409,1.09968 -1.89557,2.44375 -0.46094,1.7626 -2.00611,2.49513 -5.54371,2.62812 -3.32975,0.1252 -4.60683,-0.29754 -3.97711,-1.31642 0.62676,-1.01412 0.32027,-1.12188 -0.94513,-0.33229 -2.50141,1.56084 -5.41675,1.93731 -7.07343,0.91343 -2.67408,-1.65267 -7.33468,-1.43463 -8.86969,0.41496 -0.86077,1.03716 -2.05119,1.5853 -2.64535,1.21809 -0.59416,-0.36721 -2.39996,1.18563 -4.01286,3.45074 -2.03428,2.8569 -3.35823,3.69274 -4.32223,2.72874 -0.96399,-0.96399 -1.94072,-0.68915 -3.18871,0.89728 -1.40578,1.78704 -1.72196,1.84976 -1.44638,0.28693 0.44825,-2.54228 4.63952,-5.72544 6.23793,-4.73756 0.66767,0.41264 1.0642,-0.27006 0.88116,-1.51714 -0.40292,-2.7453 -3.43312,-4.05076 -3.43312,-1.47907 0,1.14679 -1.35857,1.74805 -3.66667,1.62276 -3.7789,-0.20512 -7,1.49113 -7,3.68626 0,0.68683 0.69271,0.82066 1.53935,0.2974 1.01745,-0.62882 1.17448,-0.361 0.46315,0.78996 -0.85304,1.38026 -1.4101,1.28472 -2.68635,-0.46065 -2.02784,-2.77324 -3.48541,-2.86119 -2.44405,-0.14747 0.50172,1.3075 0.12293,1.91351 -1.04185,1.66667 -1.00663,-0.21332 -1.66538,0.40675 -1.46387,1.37792 0.20149,0.97117 -0.25829,1.37972 -1.02176,0.90787 -0.76345,-0.47184 -0.97989,-1.5184 -0.48097,-2.3257 0.59226,-0.9583 0.0992,-1.15773 -1.42063,-0.57453 -1.28028,0.49129 -2.89981,0.89325 -3.59897,0.89325 -0.75406,0 -0.6906,1.08486 0.15596,2.66667 2.86892,5.36061 0.1862,2.39733 -8.44964,-9.33333 z m 83.80903,-5.77311 c -1.11948,-1.70853 -1.67397,-3.46788 -1.23218,-3.90965 0.44177,-0.44177 -0.59066,-0.43872 -2.29428,0.007 -2.14478,0.56086 -2.49292,1.00798 -1.13188,1.45369 1.08109,0.35404 2.74964,1.74888 3.70788,3.09965 2.53473,3.57303 3.35153,3.01402 0.95046,-0.65048 z m -76.11006,-37.23845 2.75067,-2.65087 -2.8247,1.45098 c -1.55357,0.79802 -3.29977,1.02208 -3.88042,0.49788 -0.58067,-0.5242 -0.56112,-0.1012 0.0435,0.94016 0.84642,1.45789 0.52167,1.67164 -1.41225,0.92953 -1.38128,-0.53005 -2.08492,-0.53723 -1.56364,-0.016 0.52129,0.52128 0.203,1.85123 -0.70731,2.95543 -1.45452,1.76434 -1.26132,1.79774 1.59424,0.27565 1.78714,-0.95259 4.48714,-2.92485 6,-4.38283 z m 52.084,-2.32177 c 0.45322,-0.73334 0.18864,-1.33334 -0.58798,-1.33334 -0.77661,0 -1.41202,0.6 -1.41202,1.33334 0,0.73333 0.26458,1.33333 0.58797,1.33333 0.32339,0 0.9588,-0.6 1.41203,-1.33333 z m -4.23864,-3.28572 c -0.35319,-1.49286 -0.69398,-3.4379 -0.75732,-4.3223 -0.0633,-0.88441 -0.58895,-1.3152 -1.16803,-0.9573 -0.57909,0.35789 -0.67712,1.62993 -0.21787,2.82674 0.47526,1.2385 0.28219,1.83436 -0.44812,1.383 -0.70572,-0.43616 -1.3607,0.23684 -1.45552,1.49556 -0.10466,1.38868 0.78339,2.28859 2.25831,2.28859 1.76632,0 2.25517,-0.74189 1.78855,-2.71429 z m -31.0947,57.87369 c 0,-0.77662 -0.6,-1.0412 -1.33333,-0.58798 -1.92104,1.18727 -1.64219,-0.0839 0.38805,-1.76877 1.30132,-1.08 1.76915,-0.79447 1.91714,1.17008 0.10766,1.42928 -0.067,2.59869 -0.38806,2.59869 -0.32109,0 -0.5838,-0.63541 -0.5838,-1.41202 z m 23.42671,-6.4369 c -1.21201,-1.96106 3.11643,-4.80794 4.78029,-3.14407 0.78503,0.78502 1.02419,2.07958 0.53147,2.87682 -1.07999,1.74745 -4.29692,1.90931 -5.31176,0.26725 z m 4.57329,-0.73905 c 0,-1.4073 -2.55881,-1.99854 -3.31989,-0.7671 -0.46061,0.74529 0.0979,1.35507 1.2412,1.35507 1.14328,0 2.07869,-0.26458 2.07869,-0.58797 z m -8.76584,-1.67094 c 0.19436,-1.32427 0.79619,-2.30775 1.33739,-2.18552 2.02484,0.45726 2.10216,1.44541 0.2344,2.99552 -1.56563,1.29934 -1.85917,1.14806 -1.57179,-0.81 z m 12.09918,0.92558 c -0.45323,-0.73333 -0.18864,-1.33333 0.58797,-1.33333 0.77661,0 1.41203,0.6 1.41203,1.33333 0,0.73333 -0.26459,1.33333 -0.58798,1.33333 -0.32338,0 -0.9588,-0.6 -1.41202,-1.33333 z m -97.894737,-6.1111 c 0.064,-1.55327 0.37992,-1.8692 0.80556,-0.80556 0.38516,0.96249 0.33779,2.1125 -0.10527,2.55556 -0.44305,0.44305 -0.75819,-0.34446 -0.70029,-1.75 z m 249.283957,-20.19 c -0.0308,-0.89895 1.14186,-3.59895 2.60578,-6 1.46394,-2.40106 2.63878,-3.76556 2.61079,-3.03223 -0.0795,2.08273 -5.15379,10.86856 -5.21657,9.03223 z m -230.72255,-7.6989 c -1.04669,-1.26118 -1.13607,-2 -0.24195,-2 0.77985,0 1.79477,0.60979 2.25539,1.35508 0.46062,0.7453 1.48873,0.95259 2.2847,0.46066 0.86377,-0.53384 1.06367,-0.27384 0.49585,0.64492 -1.28653,2.08164 -2.80519,1.9357 -4.79399,-0.46066 z m 137.54895,-23.79189 c 0.49811,-5.98112 0.95337,-11.10932 1.01168,-11.396 0.0583,-0.28668 1.89317,3.01332 4.07748,7.33333 l 3.97145,7.85456 -2.97145,2.37127 c -7.05472,5.62977 -7.07001,5.61429 -6.08916,-6.16316 z m -70.88229,0.45856 c 0,-0.73333 0.63541,-1.33333 1.41203,-1.33333 0.77661,0 1.0412,0.6 0.58797,1.33333 -0.45323,0.73333 -1.08864,1.33333 -1.41203,1.33333 -0.32338,0 -0.58797,-0.6 -0.58797,-1.33333 z m 97.53346,-12.18841 c -3.64666,-9.74059 -3.52154,-10.14334 1.62654,-5.23606 2.64002,2.51654 4.65904,4.63632 4.48669,4.71062 -0.17235,0.0743 -1.35341,0.93053 -2.6246,1.90273 -2.01247,1.53913 -2.46343,1.36109 -3.48863,-1.37729 z M 82.583273,342.81439 c 1.1,-0.71088 2.6,-1.29249 3.33333,-1.29249 0.73334,0 0.43334,0.58161 -0.66666,1.29249 -1.1,0.71088 -2.6,1.29249 -3.33334,1.29249 -0.73333,0 -0.43333,-0.58161 0.66667,-1.29249 z m 84.358697,0.40934 c 1.2973,-0.33805 3.0973,-0.31582 4,0.0495 0.90271,0.36524 -0.1587,0.64183 -2.3587,0.61465 -2.2,-0.0272 -2.93859,-0.326 -1.6413,-0.66405 z m -89.025363,-1.74267 c 0.453226,-0.73334 1.424046,-1.33334 2.157376,-1.33334 0.73334,0 0.96252,0.6 0.50929,1.33334 -0.45322,0.73333 -1.42404,1.33333 -2.157378,1.33333 -0.733333,0 -0.962513,-0.6 -0.509288,-1.33333 z m 66.358703,0.40934 c 1.29729,-0.33805 3.09729,-0.31582 4,0.0495 0.9027,0.36524 -0.15871,0.64182 -2.35871,0.61465 -2.2,-0.0272 -2.93859,-0.326 -1.64129,-0.66405 z m -71.025369,-1.88533 c 0,-0.81179 -0.9,-1.13063 -2,-0.70851 -1.1,0.42211 -2,0.1863 -2,-0.52401 0,-0.71032 2.85,-1.20979 6.333333,-1.10992 3.483329,0.0999 4.983329,0.4416 3.333329,0.7594 -1.649996,0.31781 -2.999996,1.13609 -2.999996,1.81843 0,0.68233 -0.6,1.2406 -1.333333,1.2406 -0.733333,0 -1.333333,-0.66419 -1.333333,-1.47599 z m 48.358699,0.552 c 1.2973,-0.33805 3.0973,-0.31583 4,0.0495 0.90271,0.36524 -0.1587,0.64182 -2.3587,0.61465 -2.2,-0.0272 -2.93859,-0.326 -1.6413,-0.66405 z m -22.666657,-1.33333 c 1.297287,-0.33806 3.097287,-0.31583 3.999997,0.0495 0.90271,0.36524 -0.15871,0.64183 -2.35871,0.61466 -2.199997,-0.0272 -2.938577,-0.326 -1.641287,-0.66406 z m 182.057947,-6.6535 c 0.96249,-0.38516 2.11249,-0.3378 2.55556,0.1052 0.44305,0.44306 -0.34445,0.75819 -1.75,0.7003 -1.55327,-0.064 -1.8692,-0.37992 -0.80556,-0.80555 z m 20.35527,-10.53362 c 0.064,-1.55327 0.37992,-1.8692 0.80554,-0.80556 0.38516,0.96249 0.3378,2.11249 -0.1052,2.55556 -0.44306,0.44305 -0.75818,-0.34446 -0.70029,-1.75 z m -78.66667,-22.66667 c 0.064,-1.55327 0.37992,-1.8692 0.80555,-0.80556 0.38516,0.96249 0.3378,2.11249 -0.1052,2.55556 -0.44307,0.44305 -0.75819,-0.34445 -0.7003,-1.75 z M 37.409353,245.10714 c -0.821009,-0.82101 -1.492744,-0.99928 -1.492744,-0.39616 0,0.60313 -0.846584,0.394 -1.881296,-0.46473 -1.286073,-1.06735 -2.154677,-1.119 -2.745356,-0.16327 -0.475233,0.76895 -1.471506,1.39808 -2.213942,1.39808 -0.742435,0 -0.389288,-0.96059 0.78477,-2.13465 2.402858,-2.40286 8.708995,-1.56612 8.742908,1.16005 0.0132,1.06043 0.477832,0.93347 1.312916,-0.35873 0.817441,-1.26491 1.300004,-1.4028 1.312916,-0.37518 0.01227,0.97511 0.95344,1.29003 2.35375,0.78756 1.283334,-0.46049 1.964518,-0.42285 1.513743,0.0836 -1.506071,1.69227 -6.177214,1.97383 -7.687665,0.46338 z m 18.507255,-5.03811 c 0,-0.77661 0.548754,-1.07286 1.219454,-0.65836 0.670698,0.41452 1.456109,0.0437 1.745355,-0.82404 0.289247,-0.86774 1.25028,-1.13001 2.13563,-0.58284 0.885349,0.54718 1.264529,1.5534 0.842621,2.23607 -1.056688,1.70976 -5.94306,1.56931 -5.94306,-0.17083 z M 342.86815,223.35374 c 0.66452,-1.14995 -4.76561,-7.33165 -6.309,-7.18221 -0.40578,0.0393 -1.64149,-0.83226 -2.746,-1.93678 -1.78872,-1.7887 -1.63673,-2.10144 1.39067,-2.86126 4.96672,-1.24656 10.04611,2.49137 10.04611,7.39296 0,2.13981 -0.69271,4.31868 -1.53935,4.84193 -0.84664,0.52325 -1.22573,0.40867 -0.84243,-0.25464 z M 442.9504,110.46325 c -4.95638,-1.88328 -6.63117,-3.14669 -6.07894,-4.58577 0.51201,-1.33428 1.90289,-1.75885 4.23701,-1.29336 1.91113,0.38114 7.23821,1.11788 11.83796,1.63722 4.59973,0.51934 8.6202,1.36015 8.93437,1.86848 0.31416,0.50832 -2.2774,1.83517 -5.75901,2.94854 -5.88781,1.88285 -6.80833,1.84266 -13.17139,-0.57511 z m 27.46277,-4.64885 c -1.65849,-2.11474 -1.61133,-2.1619 0.50342,-0.50341 2.221,1.74183 2.9273,2.83674 1.82992,2.83674 -0.27687,0 -1.32687,-1.05 -2.33334,-2.33333 z m -49.16325,-3.1673 c 0,-1.48151 3.3491,-2.944691 5.24576,-2.29181 0.73356,0.25251 -0.14665,1.15266 -1.95601,2.00033 -1.83913,0.86162 -3.28975,0.99015 -3.28975,0.29148 z m -250.66665,-79.778507 -3.33334,-1.013328 3.33334,-1.328991 c 1.83333,-0.730944 4.23333,-1.626681 5.33333,-1.990527 1.10664,-0.366042 -0.97785,-1.524195 -4.66667,-2.592816 l -6.66666,-1.93128 6.66666,-1.759995 c 3.71887,-0.981779 5.78234,-2.068072 4.66667,-2.4567331 -1.1,-0.3832056 -3.5,-1.2947833 -5.33333,-2.0257282 l -3.33334,-1.3289908 3.33334,-1.0133277 c 4.35322,-1.3233753 179.64676,-1.3233753 183.99999,0 l 3.33333,1.0133277 -3.33333,1.3289908 c -1.83333,0.7309449 -4.23333,1.6425226 -5.33333,2.0257282 -1.11567,0.3886611 0.9478,1.4749541 4.66666,2.4567331 l 6.66667,1.759995 -6.66667,1.927391 -6.66666,1.927391 4.23764,1.473984 c 6.14506,2.137448 6.45856,3.0466 1.3791,3.999512 -2.68094,0.502948 -6.71838,0.06561 -9.96313,-1.079191 -17.82937,-6.290574 -54.00797,-11.446336 -80.32028,-11.446336 -26.27717,0 -62.49051,5.15563 -80.26667,11.427423 -5.89971,2.081538 -6.79122,2.12916 -11.73332,0.626768 z M 184.9166,13.8953 c -1.28333,-0.33537 -3.38333,-0.33537 -4.66667,0 -1.28333,0.33537 -0.23333,0.609764 2.33334,0.609764 2.56666,0 3.61666,-0.274394 2.33333,-0.609764 z m 159.99999,0 c -1.28333,-0.33537 -3.38333,-0.33537 -4.66666,0 -1.28334,0.33537 -0.23334,0.609764 2.33333,0.609764 2.56667,0 3.61667,-0.274394 2.33333,-0.609764 z"
       id="path120" />
    <path
       style="fill:#e8ecf3;stroke-width:1.33333"
       d="m 165.24993,563.83385 c -12.793,-5.62912 -34.40379,-17.08226 -43.96643,-23.30102 -36.725247,-23.88313 -67.623898,-56.77269 -89.297972,-95.05178 -5.641053,-9.9628 -13.645909,-26.66666 -12.779242,-26.66666 0.250672,0 2.384525,3.44999 4.741896,7.66666 6.608797,11.82127 21.302303,31.77795 32.851593,44.61895 42.538138,47.29577 98.702515,77.89377 162.613315,88.59069 20.36128,3.40792 65.97907,3.40792 86.34034,0 63.9108,-10.69692 120.07519,-41.29492 162.61332,-88.59069 11.54929,-12.841 26.2428,-32.79768 32.8516,-44.61895 2.35737,-4.21667 4.49122,-7.66666 4.74189,-7.66666 0.86667,0 -7.13819,16.70386 -12.77924,26.66666 -28.96516,51.15605 -74.08018,92.16172 -126.99566,115.42813 l -10.39791,4.57187 -93.60209,-0.0902 c -64.98142,-0.0627 -94.6213,-0.53872 -96.93541,-1.55696 z M 147.6666,449.90357 c 0.96249,-0.38516 2.11249,-0.3378 2.55556,0.1052 0.44305,0.44305 -0.34445,0.75819 -1.75,0.70029 -1.55327,-0.064 -1.8692,-0.37992 -0.80556,-0.80554 z m 10.15203,-1.59804 c -4.44756,-0.89481 -10.11751,2.05321 81.82582,-42.54449 17.81699,-8.64224 31.91699,-16.20577 31.33333,-16.80784 -0.58365,-0.60207 -0.0413,-0.8796 1.20504,-0.61675 2.1481,0.45303 39.94793,47.93263 38.98552,48.96895 -0.25079,0.27005 -25.23502,2.21334 -55.52053,4.31844 -30.28551,2.10509 -58.36454,4.21009 -62.39788,4.6778 -4.03333,0.46769 -11.02909,0.9244 -15.54613,1.01488 -4.51705,0.0905 -8.66705,0.61453 -9.22223,1.16453 -1.12524,1.11473 -4.52829,1.05872 -10.66294,-0.17552 z m -41.94267,-16.44239 c -11.91891,-7.19336 -11.04891,-6.20476 -8.66381,-9.84489 1.18174,-1.80354 1.83028,-3.79425 1.44121,-4.42378 -0.92356,-1.49436 2.55412,-4.3781 3.78973,-3.14248 0.52128,0.52128 0.62238,0.0661 0.22466,-1.01158 -0.39773,-1.07765 -0.11198,-2.85936 0.63498,-3.95936 1.13825,-1.67621 1.97298,-1.2843 5.15611,2.42079 2.0889,2.43144 5.7218,7.23144 8.07314,10.66666 2.35132,3.43524 3.12248,4.95008 1.71369,3.36632 -3.09996,-3.48493 -5.10335,-2.43372 -4.96927,2.60748 0.14732,5.5386 -2.07408,6.53543 -7.40044,3.32084 z m 212.7073,-33.04875 c -0.45323,-0.73334 -0.33864,-1.34252 0.25464,-1.35375 0.59328,-0.0107 0.17869,-0.66783 -0.92131,-1.45912 -1.72081,-1.23785 -1.69264,-1.34095 0.2018,-0.73856 1.53707,0.48875 2.07104,0.0236 1.7687,-1.54089 -0.23823,-1.23256 -0.47904,-2.484 -0.53515,-2.781 -0.0561,-0.29699 -1.3464,0.58617 -2.86732,1.96258 -2.062,1.86608 -2.65544,2.00342 -2.33333,0.53999 0.23758,-1.07943 -0.30286,-1.81764 -1.20099,-1.64049 -1.25533,0.24761 -1.28732,-0.4365 -0.13836,-2.95819 0.82203,-1.80416 2.09956,-2.9064 2.83897,-2.44941 0.74448,0.46012 0.93591,0.16996 0.42899,-0.65026 -0.50345,-0.81461 -1.73636,-1.16606 -2.7398,-0.78101 -1.16483,0.44699 -1.75196,-0.17664 -1.62397,-1.72489 0.13146,-1.59103 -0.5739,-2.29672 -2.05118,-2.05198 -1.92124,0.31828 -2.07401,-0.24633 -1.04114,-3.84774 0.66577,-2.32143 0.83422,-3.8445 0.37432,-3.3846 -0.4599,0.4599 -1.64139,0.16792 -2.62552,-0.64884 -1.17394,-0.97428 -1.78935,-1.00852 -1.78935,-0.0996 0,0.76201 0.75,1.67433 1.66667,2.02737 0.91666,0.35303 0.35818,0.57848 -1.24107,0.50099 -1.59925,-0.0775 -2.79925,-0.75205 -2.66667,-1.49903 0.32443,-1.82773 3.1101,-4.75496 4.52502,-4.75496 0.62761,0 2.16085,-1.65 3.40721,-3.66666 3.81216,-6.16822 51.71996,-54.58933 50.45936,-51 -0.64388,1.83333 -9.64116,20.63499 -19.99395,41.78145 -10.35277,21.14647 -18.82324,38.99647 -18.82324,39.66667 0,0.6702 -0.63541,1.21854 -1.41202,1.21854 -0.77662,0 -1.0412,0.6 -0.58798,1.33334 0.45323,0.73333 0.52404,1.33333 0.15738,1.33333 -0.36667,0 -1.03748,-0.6 -1.49071,-1.33333 z m -2.87323,-8.72418 c -0.43425,-1.13162 -1.0755,-1.77154 -1.425,-1.42204 -0.3495,0.34951 -0.23997,1.27539 0.2434,2.05751 1.31474,2.12728 2.08318,1.71401 1.1816,-0.63547 z m -220.29002,-1.53177 c 1.00646,-1.24077 1.17079,-1.86152 0.36519,-1.37944 -2.17392,1.30088 -5.994807,-2.8218 -16.700277,-18.01932 -5.29954,-7.52324 -12.256161,-17.39092 -15.459157,-21.92816 l -5.823628,-8.24952 39.512202,13.18721 c 21.7317,7.25298 40.26266,13.81006 41.17991,14.5713 0.91724,0.76124 1.92679,1.23928 2.24344,1.0623 0.31666,-0.17696 -0.0764,0.44464 -0.87341,1.38135 -0.79703,0.93672 -3.21132,1.83672 -5.36508,2 -2.15376,0.16329 -4.78914,1.12725 -5.85641,2.14213 -1.40724,1.33818 -2.08405,1.41448 -2.46299,0.27768 -0.39149,-1.17448 -0.98028,-1.18764 -2.34802,-0.0525 -1.00404,0.83328 -2.58275,1.26263 -3.50826,0.95413 -0.92549,-0.3085 -2.83653,0.51403 -4.24674,1.82784 -1.41022,1.31382 -3.06628,2.07834 -3.68016,1.69894 -0.61388,-0.37939 -0.75882,0.24136 -0.3221,1.37944 0.94088,2.45188 -1.57706,2.82342 -2.72825,0.40258 -0.43592,-0.91666 -0.54187,-0.31584 -0.23547,1.33518 0.30642,1.65101 0.0885,2.71225 -0.48413,2.35832 -0.57269,-0.35395 -2.68351,0.87845 -4.6907,2.73866 -2.0072,1.86022 -3.85006,3.18159 -4.09525,2.9364 -0.77172,-0.77172 1.30371,-3.2033 4.07588,-4.77529 1.50395,-0.85284 1.88751,-1.52985 0.8797,-1.55272 -0.98284,-0.0223 -3.36645,1.75945 -5.29692,3.95945 -3.64452,4.15338 -7.30216,5.71712 -4.07937,1.74406 z m 194.83283,-3.93605 c 1.28493,-1.4801 1.88493,-3.14238 1.33333,-3.69398 -0.5516,-0.5516 -0.40291,-0.88186 0.33043,-0.7339 3.06434,0.61824 4.53535,-0.17087 3.8155,-2.04679 -0.42212,-1.1 -0.13869,-2 0.62981,-2 3.46451,0 2.35835,2.63951 -2.81822,6.72484 -3.09491,2.44249 -4.57579,3.22991 -3.29085,1.74983 z m 18.33042,-0.47467 c 0.78493,-1.46667 1.72716,-2.66667 2.09383,-2.66667 0.36666,0 0.0244,1.2 -0.7605,2.66667 -0.78493,1.46667 -1.72716,2.66667 -2.09382,2.66667 -0.36667,0 -0.0244,-1.2 0.76049,-2.66667 z m -193.67823,-2.90439 c 0.91031,-1.1042 1.2286,-2.43414 0.70731,-2.95542 -0.52128,-0.5213 0.18236,-0.51412 1.56364,0.016 1.93392,0.7421 2.25866,0.52836 1.41225,-0.92954 -0.60453,-1.04129 -0.62408,-1.46436 -0.0435,-0.94016 0.58066,0.5242 2.32686,0.30015 3.88043,-0.49788 l 2.82469,-1.45097 -2.75066,2.65087 c -1.51287,1.45797 -4.21287,3.43024 -6,4.38282 -2.85556,1.5221 -3.04876,1.4887 -1.59424,-0.27565 z m 116.67823,-0.106 c -5.89662,-1.87157 -5.5363,-5.12662 1.07464,-9.70801 l 5.40796,-3.74773 4.22736,4.22736 c 4.19998,4.19997 4.2103,4.24377 1.59204,6.76038 -3.54188,3.40439 -7.10174,4.11856 -12.302,2.468 z m 41,1.17363 c 0,-0.27687 1.05,-1.32687 2.33334,-2.33333 2.11474,-1.6585 2.1619,-1.61134 0.50341,0.50341 -1.74183,2.22101 -2.83675,2.92732 -2.83675,1.82993 z m 6.66667,-5.33333 c 0,-0.27687 1.05,-1.32687 2.33333,-2.33334 2.11475,-1.65849 2.16191,-1.61133 0.50342,0.50342 -1.74183,2.22101 -2.83675,2.92732 -2.83675,1.82993 z m 14.00944,-3.48132 c -0.46712,-0.75582 0.0681,-0.97934 1.25464,-0.52402 2.30989,0.88639 2.73252,1.84208 0.81461,1.84208 -0.69005,0 -1.62123,-0.59313 -2.06925,-1.31806 z m -7.50944,-0.68192 c -0.0916,-0.36667 -0.31667,-1.26667 -0.5,-2 -0.18333,-0.73334 -0.40833,-1.99752 -0.5,-2.80932 -0.0916,-0.81179 -1.09783,-1.11867 -2.23592,-0.68194 -1.25929,0.48324 -1.7284,0.24255 -1.19847,-0.61492 0.47894,-0.77492 1.66044,-1.10593 2.62558,-0.73558 1.74664,0.67025 4.0038,-2.90771 2.67353,-4.23796 -0.38393,-0.38394 -0.69805,0.002 -0.69805,0.85749 0,0.85556 -0.63542,1.55556 -1.41203,1.55556 -0.77661,0 -1.0412,-0.6 -0.58797,-1.33333 0.45322,-0.73334 0.21845,-1.33334 -0.52172,-1.33334 -0.74018,0 -1.95735,1.05 -2.70482,2.33334 -0.74748,1.28333 -1.37729,1.61874 -1.39958,0.74536 -0.0223,-0.87339 0.53325,-1.9426 1.23456,-2.37604 1.69408,-1.047 0.23001,-4.69863 -1.73492,-4.32716 -0.93276,0.17633 -1.38883,-1.15488 -1.15639,-3.3755 0.21109,-2.01666 -0.27432,-3.66666 -1.07869,-3.66666 -0.80436,0 -1.09591,0.59313 -0.64788,1.31806 0.47037,0.76108 -0.0764,0.97616 -1.29383,0.50898 -1.87164,-0.71822 -1.84197,-1.02711 0.26408,-2.75027 1.30488,-1.06765 1.62252,-1.56129 0.70585,-1.09696 -0.91666,0.46433 -1.66666,0.20883 -1.66666,-0.56779 0,-0.77661 0.7,-1.41202 1.55556,-1.41202 0.85554,0 1.20054,-0.355 0.76666,-0.78888 -1.04977,-1.04978 -4.80089,1.10625 -4.79418,2.75554 0.003,0.715 -0.78971,1.51068 -1.76138,1.76818 -1.31069,0.34734 -1.35466,0.1748 -0.17038,-0.66852 2.22044,-1.58116 -0.0943,-5.05687 -2.44722,-3.67462 -1.19308,0.7009 -1.08508,0.18794 0.31494,-1.49585 2.90198,-3.49017 4.10754,-7.22918 2.33089,-7.22918 -0.95529,0 -0.88104,-0.69128 0.21628,-2.01347 1.48228,-1.78604 8.33832,-4.22792 18.78337,-6.68996 l 3.4612,-0.81587 0.77877,17.51055 c 0.51027,11.47313 1.3856,18.25932 2.5388,19.68225 1.3942,1.72033 1.40147,1.95609 0.0349,1.13432 -0.9488,-0.57057 -2.54539,-0.35661 -3.54797,0.47547 -1.27459,1.05781 -2.08683,1.0858 -2.70039,0.0931 -1.05488,-1.70682 -3.36816,-0.5276 -3.33949,1.70236 0.0144,1.11727 0.34568,1.07524 1.11769,-0.1418 0.87228,-1.37508 1.4612,-1.29129 2.87195,0.40856 0.97606,1.1761 1.2231,2.03344 0.54897,1.90522 -2.7656,-0.52602 -4.66544,0.16513 -3.89236,1.416 0.45323,0.73333 0.48864,1.33333 0.0787,1.33333 -0.40995,0 -0.82036,-0.3 -0.91203,-0.66667 z m -2.93124,-16.2654 c -1.398,-0.36486 -2.13105,-1.41676 -1.72489,-2.47519 0.38848,-1.01237 0.0399,-2.2526 -0.77478,-2.75605 -0.86322,-0.53351 -1.10797,-0.31164 -0.58669,0.53182 0.49193,0.79598 0.28464,1.8241 -0.46065,2.28471 -2.43152,1.50276 -1.43007,2.76225 2.31158,2.90717 2.04632,0.0793 2.59228,-0.13836 1.23543,-0.49246 z m -9.70611,-12.17904 c 0.3777,-0.61112 -0.18689,-1.11112 -1.25464,-1.11112 -1.06773,0 -1.94134,0.5 -1.94134,1.11112 0,0.6111 0.56458,1.1111 1.25464,1.1111 0.69005,0 1.56366,-0.5 1.94134,-1.1111 z m -14.9752,17.5502 c -1.62446,-6.07374 -1.55789,-6.54482 1.24578,-8.81508 2.90186,-2.34979 3.05197,-2.31122 7.39836,1.90146 4.13868,4.01138 4.29129,4.46026 2.27421,6.68912 -1.18921,1.31406 -2.682,2.06792 -3.31733,1.67527 -0.63532,-0.39265 -1.15514,-0.0785 -1.15514,0.69811 0,0.77661 -0.85,1.41202 -1.88889,1.41202 -1.03888,0 -2.10307,0.64254 -2.36484,1.42787 -0.26177,0.78532 -1.24824,-1.45963 -2.19215,-4.98877 z m 42.44588,5.59934 c 0,-1.35273 3.89351,-3.28942 4.53296,-2.25477 0.42371,0.68557 -0.42287,1.55853 -1.88129,1.93992 -1.45842,0.38139 -2.65167,0.52307 -2.65167,0.31485 z m -118.97927,-2.54601 c -1.27194,-0.96585 -1.87194,-2.22131 -1.33334,-2.78989 0.5386,-0.5686 -0.52072,-0.58474 -2.35405,-0.0359 -1.83333,0.54887 -2.90885,0.54892 -2.39003,1.2e-4 0.51882,-0.54881 -0.24381,-1.97335 -1.6947,-3.16564 -2.57858,-2.11897 -2.46464,-2.3872 5.05669,-11.90464 4.89281,-6.19133 7.85168,-8.98301 8.1258,-7.66666 0.23711,1.13858 1.13711,2.09012 2,2.11452 0.86291,0.0244 2.90073,1.15585 4.52851,2.51434 l 2.9596,2.46999 -3.41342,10.15232 c -2.85717,8.4979 -3.88266,10.14541 -6.29293,10.10992 -1.58373,-0.0233 -3.9202,-0.83266 -5.19213,-1.79851 z m 118.49434,-8.91708 c -0.46662,-2.33311 -0.81239,-7.91701 -0.76836,-12.40868 l 0.08,-8.16666 4.21854,8.36141 c 3.06518,6.07534 4.77486,8.14985 6.2533,7.58766 1.16056,-0.44132 1.4619,-0.30572 0.70141,0.31559 -0.73333,0.59913 -3.20155,2.76859 -5.48493,4.82101 l -4.1516,3.73167 -0.8484,-4.242 z m -92.74313,-0.68645 c 0.064,-1.55327 0.37992,-1.8692 0.80555,-0.80556 0.38516,0.96249 0.3378,2.1125 -0.1052,2.55556 -0.44307,0.44305 -0.75819,-0.34446 -0.7003,-1.75 z m 1.33333,-9.33334 c 0.064,-1.55326 0.37992,-1.8692 0.80555,-0.80556 0.38516,0.9625 0.3378,2.11251 -0.1052,2.55556 -0.44307,0.44306 -0.75819,-0.34445 -0.70029,-1.75 z m 46.5614,-1.22222 c -1.09887,-1.32406 -4.08313,-2 -8.82992,-2 -4.15755,0 -7.17008,-0.59327 -7.17008,-1.41203 0,-0.77661 -0.69271,-0.9839 -1.53935,-0.46065 -0.93213,0.57609 -1.17826,0.36713 -0.62396,-0.52975 0.50346,-0.81461 1.89459,-1.10534 3.0914,-0.64609 1.61159,0.61843 1.89092,0.34393 1.07687,-1.05823 -0.60453,-1.04129 -0.62408,-1.46436 -0.0435,-0.94016 0.58066,0.5242 2.16311,0.36044 3.51654,-0.36389 1.89104,-1.01205 3.12174,-0.65604 5.31541,1.53763 1.57003,1.57002 3.23377,2.3137 3.69721,1.65261 0.46346,-0.66109 1.54263,-1.18192 2.39819,-1.15739 2.62648,0.0753 3.56921,1.88606 1.97935,3.80173 -0.83148,1.00187 -1.11698,2.21636 -0.63446,2.6989 0.48254,0.48252 0.55079,0.87732 0.1517,0.87732 -0.3991,0 -1.47256,-0.9 -2.38548,-2 z m -179.333327,-2.65111 -10.666662,-3.07602 11.333332,0.0324 c 6.23333,0.0179 10.18047,0.45034 8.77142,0.9612 -2.42177,0.87801 -2.38731,1.0511 0.63001,3.16451 4.00922,2.80816 3.07302,2.70755 -10.0681,-1.08206 z m 95.666667,2.39867 c 1.28333,-0.33536 3.38333,-0.33536 4.66666,0 1.28334,0.33537 0.23334,0.60977 -2.33333,0.60977 -2.56667,0 -3.61667,-0.2744 -2.33333,-0.60977 z m -21.30796,-1.33822 c 1.29729,-0.33805 3.09729,-0.31582 4,0.0495 0.9027,0.36524 -0.15871,0.64183 -2.35871,0.61465 -2.2,-0.0272 -2.93859,-0.326 -1.64129,-0.66405 z m -22.66667,-1.33333 c 1.2973,-0.33805 3.0973,-0.31582 4,0.0495 0.90271,0.36524 -0.1587,0.64182 -2.3587,0.61465 -2.2,-0.0272 -2.93859,-0.326 -1.6413,-0.66405 z m 194.30795,0.42057 c 0,-0.27686 1.05,-1.32686 2.33334,-2.33333 2.11474,-1.65849 2.1619,-1.61133 0.50341,0.50342 -1.74183,2.22099 -2.83675,2.9273 -2.83675,1.82991 z m -216.97461,-1.7539 c 1.29729,-0.33805 3.09729,-0.31583 4,0.0495 0.9027,0.36524 -0.15871,0.64182 -2.35871,0.61465 -2.2,-0.0272 -2.93858,-0.326 -1.64129,-0.66405 z m 102.80049,-1.04901 c -1.12558,-2.93319 0.11146,-3.84566 2.04888,-1.51126 1.0906,1.3141 1.14717,2.186 0.18058,2.78339 -0.77413,0.47844 -1.77738,-0.094 -2.22946,-1.27213 z M 307.91659,326.899 c 0,-0.61664 2.14262,-1.52312 4.76135,-2.0144 2.61875,-0.49128 5.76875,-1.25365 7,-1.69416 1.23127,-0.44052 1.84771,-0.36438 1.36988,0.16918 -1.43091,1.59778 -13.13123,4.75149 -13.13123,3.53938 z m 19.38959,-5.21633 c 0.70239,-0.63392 10.27708,-3.59681 21.27708,-6.58423 11,-2.98741 21.05,-5.83764 22.33333,-6.33384 1.47312,-0.56958 2.33334,-0.27612 2.33334,0.79603 0,0.93401 -0.4084,1.2898 -0.90756,0.79065 -0.49915,-0.49916 -2.69195,0.75084 -4.87288,2.77778 -2.18094,2.02693 -3.53712,2.93533 -3.01375,2.01866 1.40283,-2.45705 -0.9234,-2.05277 -9.1678,1.5933 -4.05424,1.79298 -7.37135,2.73666 -7.37135,2.09709 0,-1.495 -5.98969,-0.72403 -14.87514,1.91467 -3.8568,1.14534 -6.43767,1.5638 -5.73527,0.92989 z m -21.84573,-33.53495 c 0,-1.83333 0.30264,-2.58333 0.67252,-1.66666 0.36988,0.91666 0.36988,2.41666 0,3.33333 -0.36988,0.91667 -0.67252,0.16667 -0.67252,-1.66667 z m 34.14293,-54.79067 c -0.69157,-7.19724 -4.07827,-13.04971 -8.79137,-15.19216 -3.63532,-1.65251 -3.67638,-2.92292 -0.1308,-4.04824 1.87561,-0.5953 3.36257,-0.0883 4.62426,1.57681 1.02282,1.34985 1.87875,1.98311 1.90208,1.40723 0.0233,-0.57587 1.46331,0.32413 3.19998,2 1.73666,1.67588 2.84864,3.64704 2.47105,4.38037 -0.45767,0.88889 -0.21449,0.88889 0.72953,0 0.77883,-0.73333 1.68514,-2.83333 2.01403,-4.66667 0.32889,-1.83333 0.67971,-0.124 0.77957,3.7985 0.16595,6.51786 -2.49074,15.22357 -5.14662,16.865 -0.55216,0.34125 -1.29543,-2.41312 -1.65168,-6.12084 z m -15.68679,1.60088 c 0,-0.89884 -0.6,-1.26343 -1.33333,-0.8102 -0.73333,0.45322 -1.33333,0.15322 -1.33333,-0.66667 0,-0.81989 -0.45,-1.2666 -1,-0.99268 -0.55,0.27392 -2.3483,-0.91016 -3.99622,-2.63128 -2.47842,-2.58852 -2.64946,-3.26236 -0.9897,-3.89928 4.00345,-1.53627 12.23676,7.05017 9.441,9.84595 -0.43363,0.43362 -0.78842,0.053 -0.78842,-0.84584 z M 461.92603,108.163 c -0.46712,-0.75581 0.0681,-0.97934 1.25464,-0.52401 2.30989,0.88639 2.73252,1.84207 0.81461,1.84207 -0.69005,0 -1.62122,-0.59312 -2.06925,-1.31806 z m -0.009,-2.80279 c -4.4,-0.6075 -12.72464,-1.40347 -18.4992,-1.76883 -16.67611,-1.05508 -13.56087,-2.11032 6.23007,-2.11032 16.8107,0 18.28246,0.20022 19.60246,2.66667 0.78493,1.46667 1.25604,2.588 1.04691,2.49185 -0.20914,-0.0962 -3.98024,-0.67187 -8.38024,-1.27937 z m -38,-2.54581 c 0,-0.73334 0.63541,-1.33334 1.41203,-1.33334 0.77661,0 1.0412,0.6 0.58797,1.33334 -0.45323,0.73333 -1.08864,1.33333 -1.41203,1.33333 -0.32338,0 -0.58797,-0.6 -0.58797,-1.33333 z m -4.25,-2.24415 c 0.96249,-0.38517 2.11251,-0.3378 2.55556,0.10526 0.44305,0.44306 -0.34445,0.75819 -1.75,0.7003 -1.55327,-0.064 -1.8692,-0.37993 -0.80556,-0.80556 z"
       id="path118" />
    <path
       style="fill:#dce1e7;stroke-width:1.33333"
       d="m 133.51162,442.23633 c -6.82275,-4.68013 -11.89431,-8.82495 -11.27015,-9.21071 0.62417,-0.38574 1.09005,-2.39109 1.03532,-4.4563 -0.14101,-5.31984 1.88848,-6.06978 5.29275,-1.95575 3.9709,4.79884 18.21393,24.20929 17.73287,24.16645 -0.2122,-0.0189 -5.96805,-3.86356 -12.79079,-8.54369 z m 138.39339,-58.42194 c -0.007,-2.38334 -0.38995,-7.48334 -0.85239,-11.33334 -0.71344,-5.93962 -0.5097,-7 1.34492,-7 1.20215,0 2.18572,-0.63541 2.18572,-1.41202 0,-0.77662 0.51982,-1.09076 1.15514,-0.69811 0.63533,0.39265 2.14181,-0.37635 3.34774,-1.70888 2.06728,-2.28432 1.76331,-2.81601 -5.3182,-9.30213 -6.35216,-5.81808 -7.25066,-7.19279 -5.82441,-8.91131 1.74191,-2.09886 0.91639,-3.93412 -1.80471,-4.01216 -0.85556,-0.0245 -1.93473,0.4963 -2.39818,1.15739 -0.46344,0.66109 -2.12719,-0.0825 -3.69722,-1.65261 -2.19366,-2.19367 -3.42437,-2.54968 -5.31541,-1.53763 -1.35343,0.72433 -2.93588,0.88809 -3.51653,0.36389 -0.58067,-0.5242 -0.72254,-0.35309 -0.31527,0.38024 0.40727,0.73334 -0.21075,2.21368 -1.37336,3.28966 -1.87336,1.73374 -2.01475,1.69803 -1.24272,-0.31382 0.72208,-1.88172 0.47485,-2.02268 -1.44485,-0.8238 -1.6725,1.0445 -3.88484,1.02392 -7.96239,-0.074 -5.20165,-1.40065 -5.58524,-1.80492 -4.87013,-5.13253 l 0.77625,-3.61212 -3.36393,3.66281 c -3.35998,3.6585 -8.45478,4.37568 -12.65287,1.78112 -2.54,-1.56981 -0.62608,-10.73017 4.12233,-19.73024 2.34379,-4.44236 3.6867,-8.61221 3.22051,-10 -0.55321,-1.64684 -0.14521,-1.46113 1.32399,0.60266 l 2.1236,2.98302 3.70132,-2.63557 c 3.179,-2.26365 6.67409,-3.49385 11.07466,-3.89805 0.59328,-0.0545 0.65058,-0.79179 0.12734,-1.63843 -0.61535,-0.99564 -0.36276,-1.17556 0.7151,-0.5094 1.5744,0.97303 3.77728,0.26089 12.41222,-4.01257 4.26384,-2.11019 4.44416,-1.43059 1.47666,5.56516 -2.19621,5.17749 -3.28824,23.46237 -1.50757,25.24302 0.49869,0.4987 2.39679,0.53274 4.21799,0.0756 2.50573,-0.6289 3.44201,-1.8842 3.8487,-5.16013 0.2956,-2.38097 0.63347,-0.27905 0.75083,4.67095 0.19432,8.19593 0.46437,9 3.02271,9 2.16028,0 2.58273,0.53906 1.82853,2.33333 -3.44905,8.20552 -0.79796,12.88892 2.90288,5.12817 1.22761,-2.57435 2.83513,-4.3079 3.57224,-3.85234 0.79999,0.49442 0.99701,-0.066 0.48879,-1.39044 -0.52464,-1.36715 -0.18716,-2.21872 0.87928,-2.21872 0.95186,0 1.68304,1.35 1.62481,3 -0.0705,2.00018 0.56068,2.85717 1.89413,2.57142 1.63735,-0.35085 1.68774,-0.11107 0.27782,1.32219 -1.40163,1.42488 -1.9199,1.43086 -2.78436,0.0321 -0.82887,-1.34115 -1.47563,-1.20925 -2.94448,0.60041 -1.50538,1.85467 -1.5187,2.1001 -0.0665,1.22563 2.35212,-1.41643 4.68199,2.05651 2.44722,3.64787 -1.18428,0.84332 -1.14031,1.01586 0.17038,0.66852 0.97167,-0.2575 1.57167,-0.94538 1.33334,-1.52863 -0.5505,-1.34717 4.16542,-4.05189 5.22222,-2.99509 0.43388,0.43388 0.0889,0.78888 -0.76666,0.78888 -0.8556,0 -1.5556,0.63541 -1.5556,1.41202 0,0.77662 0.75,1.03212 1.66666,0.56779 0.91667,-0.46433 0.59903,0.0293 -0.70585,1.09696 -2.10605,1.72316 -2.13572,2.03205 -0.26408,2.75027 1.21747,0.46718 1.7642,0.2521 1.29383,-0.50898 -0.44803,-0.72493 -0.15648,-1.31806 0.64788,-1.31806 0.80437,0 1.28978,1.65 1.07869,3.66666 -0.23244,2.22062 0.22363,3.55183 1.15639,3.3755 1.96493,-0.37147 3.429,3.28016 1.73492,4.32716 -0.70131,0.43344 -1.25687,1.50265 -1.23456,2.37604 0.0223,0.87338 0.6521,0.53797 1.39958,-0.74536 0.74747,-1.28334 1.96464,-2.33334 2.70482,-2.33334 0.74017,0 0.97494,0.6 0.52172,1.33334 -0.45323,0.73333 -0.23864,1.33333 0.47686,1.33333 0.71551,0 1.64538,-0.75 2.06639,-1.66667 0.421,-0.91666 0.40672,-0.24153 -0.0317,1.50031 -0.50804,2.0182 -0.29516,2.85669 0.58684,2.31159 0.76122,-0.47047 1.81821,-0.1529 2.34885,0.7057 0.55087,0.89132 0.39059,1.2062 -0.37359,0.73392 -0.7361,-0.45494 -2.0758,0.50235 -2.97709,2.12732 -1.84523,3.32684 -20.35507,18.28783 -22.62583,18.28783 -0.80889,0 -1.47592,-1.95 -1.48229,-4.33333 z m 22.92269,-17.2889 c -1.21481,-1.21481 -1.96118,-1.19152 -3.24444,0.1012 -1.33633,1.34622 -1.2042,1.50292 0.66667,0.79068 1.46585,-0.55806 2.33333,-0.25696 2.33333,0.8099 0,0.93401 0.41,1.2882 0.91111,0.78709 0.50112,-0.50111 0.20112,-1.62111 -0.66667,-2.48889 z m -44.24444,16.2889 c -2.36133,-0.75623 -2.62998,-1.10628 -0.9213,-1.20043 1.53469,-0.0845 2.06316,-0.73913 1.45289,-1.79957 -0.52752,-0.91667 -0.46161,-1.21536 0.14644,-0.66376 0.60807,0.5516 2.10017,0.1028 3.31579,-0.99731 2.0185,-1.82673 2.15933,-1.65351 1.62353,1.99709 -0.32267,2.19852 -0.96857,3.9375 -1.43535,3.8644 -0.46676,-0.0731 -2.34866,-0.61329 -4.182,-1.20042 z M 217.3858,363.48105 c 0.0173,-2.2 0.81829,-8.5 1.77995,-14 l 1.74845,-9.99999 0.16787,9.51358 c 0.10173,5.7648 -0.59967,11.28144 -1.77995,14 l -1.94781,4.48641 0.0315,-4 z m -60.13587,-3.78326 c -9.16666,-2.3192 -17.3705,-4.67362 -18.23074,-5.23203 -0.86025,-0.5584 -1.95792,-2.8084 -2.43928,-5 -0.54875,-2.49843 -1.706,-3.97709 -3.10259,-3.96429 -1.29706,0.012 -1.65916,0.42956 -0.86692,1 1.79358,1.29142 4.85995,8.32242 3.61095,8.27966 -4.43157,-0.15172 -39.676547,-10.76712 -41.369457,-12.46004 -2.00895,-2.00894 -1.72305,-2.17231 3.779,-2.15939 8.543747,0.0201 89.520797,5.11001 90.072457,5.66165 0.82708,0.82708 -12.08127,18.26968 -13.45342,18.17914 -0.73333,-0.0484 -8.83333,-1.9855 -18,-4.3047 z m 152.21052,-2.21674 c 0,-1.83333 0.30264,-2.58333 0.67252,-1.66666 0.36988,0.91666 0.36988,2.41666 0,3.33333 -0.36988,0.91667 -0.67252,0.16667 -0.67252,-1.66667 z M 287.9166,355.9356 c 0,-0.53011 0.60978,-1.34071 1.35508,-1.80132 0.74529,-0.46061 0.95258,-1.48873 0.46065,-2.28471 -0.52128,-0.84346 -0.27653,-1.06533 0.58669,-0.53182 0.81462,0.50345 1.16326,1.74368 0.77478,2.75605 -0.40616,1.05843 0.32689,2.11033 1.72489,2.47519 1.35685,0.3541 0.81089,0.57173 -1.23543,0.49246 -2.01666,-0.0781 -3.66666,-0.57574 -3.66666,-1.10585 z m 14.97599,-6.45455 c 0,-2.56666 0.2744,-3.61666 0.60978,-2.33333 0.33536,1.28333 0.33536,3.38333 0,4.66667 -0.33538,1.28333 -0.60978,0.23333 -0.60978,-2.33334 z m 11.01987,-5.34198 c -2.60569,-5.45173 -4.18456,-7.47377 -4.94525,-6.33333 -0.6638,0.99517 -0.96858,-0.70383 -0.75071,-4.18494 0.35661,-5.69821 0.53265,-5.90962 6.36676,-7.64641 3.3,-0.9824 6.38496,-1.79529 6.85545,-1.80643 1.60939,-0.0381 2.62952,7.02812 1.21836,8.43928 -2.10529,2.1053 -1.86229,17.26175 0.25952,16.18696 0.91667,-0.46433 0.50199,0.10027 -0.9215,1.25464 -1.4235,1.15439 -2.96318,2.09888 -3.42151,2.09888 -0.45833,0 -2.55584,-3.60389 -4.66112,-8.00865 z m -111.32919,-0.65802 c -0.91292,-1.1 -2.48639,-1.99999 -3.49659,-1.99999 -3.80448,0 -1.42629,-5.13927 9.53433,-20.60375 6.21258,-8.7654 11.29559,-15.55976 11.29559,-15.09859 0,2.37148 -13.77392,39.70233 -14.64892,39.70233 -0.56351,0 -1.77149,-0.9 -2.68441,-2 z m 133.33332,-5.17007 c 0,-0.27687 1.05,-1.32687 2.33334,-2.33334 2.11474,-1.65849 2.1619,-1.61133 0.50341,0.50342 -1.74183,2.221 -2.83675,2.9273 -2.83675,1.82992 z m -56.51587,-3.74056 c 0.38508,-0.62307 1.25868,-0.78767 1.94134,-0.36575 1.74451,1.07816 1.54808,1.49861 -0.70014,1.49861 -1.06775,0 -1.62628,-0.50978 -1.2412,-1.13286 z m 62.43138,-3.46299 c -0.55304,-1.26117 -0.91028,-2.74304 -0.79385,-3.29304 0.319,-1.50699 -4.92306,-1.20011 -8.04555,0.471 -2.11036,1.12943 -3.01405,1.05203 -3.89192,-0.33333 -2.59701,-4.09836 -1.20111,-5.96252 5.81581,-7.76671 9.10838,-2.34195 13,-2.73917 13,-1.32692 0,0.6284 3.37423,-0.34969 7.49828,-2.17355 4.12404,-1.82385 8.0967,-3.11661 8.82811,-2.87281 0.73141,0.24381 -3.78559,4.75093 -10.03775,10.01584 -9.59304,8.07823 -11.52456,9.21461 -12.37313,7.27952 z m -35.03832,-13.62637 c 0,-1.83334 0.30264,-2.58334 0.67252,-1.66667 0.36988,0.91667 0.36988,2.41667 0,3.33333 -0.36988,0.91667 -0.67252,0.16667 -0.67252,-1.66666 z m -5.33333,-2.66667 c 0,-1.83333 0.30264,-2.58333 0.67252,-1.66667 0.36988,0.91667 0.36988,2.41667 0,3.33334 -0.36988,0.91666 -0.67252,0.16666 -0.67252,-1.66667 z m -16.20517,-6.32232 c -2.56372,-0.30923 -5.42822,-1.19871 -6.36555,-1.97663 -0.93733,-0.7779 -2.04045,-1.07817 -2.45137,-0.66725 -0.78243,0.78241 -3.4832,-1.16212 -10.38979,-7.4806 -2.27259,-2.07907 -3.43035,-3.42355 -2.5728,-2.98773 0.85755,0.4358 2.46469,-0.1132 3.57143,-1.21988 2.44102,-2.44102 4.00684,-2.63094 2.84921,-0.34559 -0.46433,0.91667 0.009,0.62599 1.05315,-0.64595 1.04356,-1.27193 2.24925,-1.96073 2.67932,-1.53066 0.43006,0.43006 2.04438,-0.10227 3.58738,-1.18307 2.79508,-1.95775 2.78734,-1.98875 -2.09553,-8.38565 l -4.90097,-6.42064 8.0828,7.03021 c 4.44554,3.86663 8.47192,8.02896 8.94748,9.24965 0.75486,1.9376 1.19072,1.81974 3.43228,-0.92826 1.41218,-1.73126 2.56761,-2.48126 2.56761,-1.66667 0,2.71301 2.49973,1.53303 8.16088,-3.85229 3.08357,-2.93334 5.74924,-5.33334 5.9237,-5.33334 0.17447,0 -1.14936,4.35 -2.94182,9.66667 -3.93857,11.68223 -8.98021,19.7466 -12.16168,19.45328 -1.27292,-0.11733 -4.412,-0.46637 -6.97573,-0.7756 z m 20.09991,-15.78879 c 0.064,-1.55326 0.37992,-1.8692 0.80555,-0.80556 0.38516,0.9625 0.3378,2.1125 -0.1052,2.55556 -0.44307,0.44306 -0.75819,-0.34445 -0.70029,-1.75 z M 235.9166,276.97764 c 0,-0.27686 1.05,-1.32686 2.33333,-2.33333 2.11475,-1.65849 2.16191,-1.61133 0.50341,0.50341 -1.74182,2.221 -2.83674,2.92731 -2.83674,1.82992 z m 30.14121,-4.27606 c -0.41183,-1.07319 -2.06783,-2.4392 -3.68,-3.03559 l -2.93124,-1.08433 2.90352,-0.7593 c 1.60049,-0.41853 2.56559,-0.21249 2.15051,0.45912 -0.97294,1.57423 2.83238,3.05098 4.77234,1.85203 1.03271,-0.63825 0.8485,-1.61945 -0.60573,-3.22636 -1.14937,-1.27004 -1.65583,-2.74309 -1.12547,-3.27345 0.53036,-0.53038 0.1548,-1.4646 -0.83458,-2.07607 -0.98938,-0.61146 -1.36859,-1.80798 -0.84268,-2.6589 0.72452,-1.1723 1.41202,-1.16886 2.83749,0.0141 1.47729,1.22605 1.88129,1.13185 1.88129,-0.43867 0,-1.1 0.83462,-2.69266 1.8547,-3.53925 1.48937,-1.23607 2.13228,-0.74296 3.26397,2.5034 0.85235,2.44503 0.90977,4.04267 0.14531,4.04267 -0.69519,0 -1.26398,0.97078 -1.26398,2.1573 0,1.18653 -1.74976,4.15019 -3.88834,6.58589 -2.92918,3.33616 -4.07304,3.94726 -4.63711,2.47732 z m 36.02656,-1.26412 c -1.14972,-2.9961 -1.07431,-3.28974 0.84482,-3.28974 0.9236,0 2.47287,-1.27073 3.44282,-2.82386 2.68965,-4.30683 4.98289,-1.14918 2.67001,3.67648 -2.0828,4.34561 -5.73447,5.62472 -6.95765,2.43712 z m -6.06251,-6.73418 c 0.064,-1.55326 0.37992,-1.8692 0.80555,-0.80556 0.38516,0.9625 0.3378,2.1125 -0.1052,2.55556 -0.44307,0.44306 -0.75819,-0.34445 -0.70029,-1.75 z m -2.24301,-5.55181 c -2.06073,-6.65581 -4.67429,-10.87018 -7.24771,-11.68696 -2.45478,-0.77912 -0.96897,-2.17102 10.25743,-9.6091 7.22041,-4.78392 14.23388,-9.9752 15.58548,-11.53619 1.50574,-1.73901 2.25238,-2.06361 1.92793,-0.83816 -0.55899,2.11136 4.9054,8.26476 6.19456,6.97561 0.41436,-0.41436 0.75339,0.0466 0.75339,1.02439 0,0.97777 0.37142,1.40635 0.8254,0.95239 1.48852,-1.48852 4.50793,2.78036 4.50793,6.37336 0,5.25932 -2.18271,8.37316 -7.92159,11.30092 -2.84117,1.44945 -5.47373,3.40141 -5.85016,4.33768 -0.49153,1.22262 -0.71405,1.2495 -0.78965,0.0955 -0.0719,-1.09813 -2.86207,-0.56925 -8.81233,1.67043 -8.07665,3.04004 -8.75947,3.10812 -9.43068,0.94024 z m 48.9045,-21.81097 c 1.72639,-2.42449 3.32294,-7.25979 3.85218,-11.66667 0.88864,-7.39953 0.92078,-7.4461 1.91177,-2.76986 1.65645,7.81641 0.54385,13.73146 -2.86404,15.2266 -1.65,0.72389 -3,1.77389 -3,2.33333 0,0.55944 -0.64085,1.01716 -1.42412,1.01716 -0.78328,0 -0.0973,-1.86325 1.52421,-4.14056 z M 453.91659,119.91377 c -5.86667,-2.98437 -10.86791,-5.95635 -11.11388,-6.60439 -0.24597,-0.64805 -0.99597,-0.83912 -1.66667,-0.4246 -0.67069,0.41452 -1.21945,0.0828 -1.21945,-0.73705 0,-0.81989 -0.6,-1.11989 -1.33333,-0.66667 -0.73334,0.45323 -1.33334,0.15323 -1.33334,-0.66666 0,-0.81989 -0.53713,-1.15875 -1.19362,-0.75302 -0.65648,0.40574 -1.51507,-0.1 -1.90795,-1.12383 -0.51491,-1.3418 1.50827,-0.95841 7.24632,1.37317 l 7.96067,3.23471 8.28062,-2.62396 c 4.55435,-1.44318 7.38063,-2.69569 6.28063,-2.78336 -1.14044,-0.0909 -0.62747,-0.70844 1.19357,-1.43687 1.75647,-0.7026 3.50647,-0.96457 3.88889,-0.58215 0.38243,0.38242 0.12774,0.69531 -0.56596,0.69531 -0.6937,0 -1.32604,4.02744 -1.40518,8.94987 -0.0792,4.92243 -0.66158,9.09067 -1.29428,9.26276 -0.63271,0.17208 -5.95037,-2.12888 -11.81704,-5.11326 z m 0,-14.43271 c 0.45323,-0.73333 1.38864,-1.33333 2.07869,-1.33333 0.69006,0 1.25464,0.6 1.25464,1.33333 0,0.73334 -0.93541,1.33334 -2.07869,1.33334 -1.14328,0 -1.70787,-0.6 -1.25464,-1.33334 z m -10.66667,-1.33333 c -0.45322,-0.73333 -0.22404,-1.33333 0.5093,-1.33333 0.73333,0 1.70414,0.6 2.15737,1.33333 0.45323,0.73333 0.22404,1.33333 -0.50929,1.33333 -0.73334,0 -1.70415,-0.6 -2.15738,-1.33333 z m -15.66666,-2.21637 c 0.91666,-0.36989 2.41666,-0.36989 3.33333,0 0.91667,0.36988 0.16667,0.67251 -1.66667,0.67251 -1.83333,0 -2.58333,-0.30263 -1.66666,-0.67251 z"
       id="path116" />
    <path
       style="fill:#cfd3d8;stroke-width:1.33333"
       d="m 270.98281,381.48105 c 0,-4.03333 0.24996,-5.68333 0.55545,-3.66666 0.30551,2.01666 0.30551,5.31666 0,7.33333 -0.30549,2.01667 -0.55545,0.36667 -0.55545,-3.66667 z m -14.96095,-2.1111 c 0.064,-1.55327 0.37992,-1.8692 0.80555,-0.80556 0.38516,0.96249 0.3378,2.1125 -0.1052,2.55556 -0.44307,0.44305 -0.75819,-0.34446 -0.70029,-1.75 z m -36.51205,-3.6473 c -3.10653,-1.22489 -3.59941,-2.03537 -2.90946,-4.78432 1.3334,-5.31269 4.62513,-12.59285 5.36109,-11.85688 0.37208,0.37208 0.81953,4.6642 0.99433,9.53806 0.1748,4.87385 0.31251,8.79772 0.30599,8.7197 -0.007,-0.078 -1.69488,-0.80546 -3.75195,-1.61656 z m 84.51205,-13.68604 c 0.064,-1.55326 0.37992,-1.8692 0.80555,-0.80556 0.38516,0.9625 0.3378,2.11251 -0.1052,2.55556 -0.44307,0.44306 -0.75819,-0.34445 -0.7003,-1.75 z M 135.58183,351.14772 c -0.88603,-2.01667 -2.22316,-4.10748 -2.97143,-4.64625 -0.80396,-0.57888 -0.49752,-0.98794 0.74916,-1 1.25782,-0.012 2.68792,1.86386 3.54187,4.64625 1.70833,5.56628 0.9418,6.14717 -1.3196,1 z m 134.14011,-3.69313 c -0.42769,-1.11455 2.7287,-10.41455 7.01419,-20.66667 6.26299,-14.98282 8.30505,-18.6402 10.40764,-18.6402 2.28976,0 2.36201,0.20776 0.57963,1.66667 -2.37612,1.94488 -5.63656,12.4514 -4.45652,14.36076 0.4439,0.71825 0.13628,1.30591 -0.68362,1.30591 -0.81989,0 -1.17184,0.51594 -0.7821,1.14653 0.74605,1.20715 -9.24204,22.85346 -10.54511,22.85346 -0.41607,0 -1.10641,-0.9119 -1.53411,-2.02646 z m 51.52799,-5.76336 c 0,-10.75735 2.94354,-13.41232 5.34817,-4.82385 1.30032,4.64432 2.21029,5.90631 3.84436,5.33157 2.27117,-0.79884 -2.91989,3.76742 -6.8592,6.03361 -2.11048,1.21412 -2.33333,0.58937 -2.33333,-6.54133 z m -12.9971,1.78982 c 0.0148,-2.93333 0.28786,-3.97633 0.60678,-2.31778 0.31892,1.65854 0.30681,4.05854 -0.0269,5.33333 -0.33372,1.27479 -0.59466,-0.0823 -0.57986,-3.01555 z m -5.28822,-3.99999 c 0.0107,-3.66667 0.26896,-5.00842 0.57542,-2.98167 0.30648,2.02675 0.29828,5.02675 -0.0181,6.66666 -0.31648,1.63992 -0.56723,-0.0183 -0.55723,-3.68499 z m 27.74306,-4.33334 c -0.89705,-2.75 -1.9377,-5.9 -2.31256,-7 -0.54573,-1.60149 -0.42942,-1.64048 0.58375,-0.19566 0.97019,1.38352 1.90628,1.46126 4.01384,0.33333 2.94253,-1.5748 9.28684,-2.05617 7.82435,-0.59368 -0.48252,0.48253 -0.18702,1.70909 0.6567,2.72571 1.21506,1.46405 0.58887,2.65654 -3.01157,5.73516 -2.50007,2.13772 -4.90061,3.91116 -5.33453,3.94096 -0.43392,0.0297 -1.52291,-2.19582 -2.41998,-4.94582 z M 256.7724,324.48106 c -1.43244,-8.66624 -1.28115,-8.97492 4.56242,-9.30858 l 5.40442,-0.30857 -0.92972,6.30857 c -0.95211,6.46055 -2.2604,8.25231 -6.0518,8.28816 -1.46472,0.0139 -2.4246,-1.58725 -2.98532,-4.97958 z m 50.02138,-1.66667 c 0,-1.83333 0.30264,-2.58333 0.67252,-1.66667 0.36988,0.91667 0.36988,2.41667 0,3.33334 -0.36988,0.91666 -0.67252,0.16666 -0.67252,-1.66667 z m -5.23452,-14.66667 c 0,-2.56666 0.2744,-3.61666 0.60978,-2.33333 0.33536,1.28333 0.33536,3.38333 0,4.66667 -0.33538,1.28333 -0.60978,0.23333 -0.60978,-2.33334 z m -74.86152,-1.81477 c -2.49382,-4.03508 -4.14385,-14.16157 -1.76073,-10.80587 2.54939,3.58983 5.95068,1.121 9.09669,-6.60281 1.76756,-4.33957 2.98898,-8.11492 2.71423,-8.38965 -0.50896,-0.50898 -4.90979,4.42252 -9.22276,10.33486 -2.29967,3.15247 -2.29967,3.10803 0,-1.1584 1.31528,-2.44016 5.11189,-7.48074 8.43691,-11.2013 l 6.04546,-6.76466 8.95454,0.24636 c 8.54086,0.23496 12.4203,-1.66314 5.95452,-2.91338 -1.65,-0.31906 -0.99292,-0.38736 1.46017,-0.15182 4.81159,0.46203 11.00808,5.52439 17.65865,14.42663 3.87728,5.19003 3.88059,5.21083 1.132,7.136 -1.51613,1.06195 -3.10848,1.57893 -3.53854,1.14887 -0.43007,-0.43007 -1.63576,0.25873 -2.67932,1.53066 -1.04356,1.27194 -1.51748,1.56262 -1.05315,0.64595 1.15763,-2.28535 -0.40819,-2.09543 -2.84921,0.34559 -1.10674,1.10674 -2.71388,1.60998 -3.57143,1.11833 -0.85755,-0.49165 -0.0592,0.84853 1.77416,2.97821 2.35887,2.74014 2.52212,3.19194 0.55847,1.54542 -1.52618,-1.27968 -3.17618,-1.92539 -3.66667,-1.43491 -0.49049,0.49049 -0.8918,0.21971 -0.8918,-0.60173 0,-1.02466 -1.15112,-0.92386 -3.66667,0.3211 -8.63493,4.27347 -10.83781,4.9856 -12.41221,4.01258 -1.07787,-0.66616 -1.33045,-0.48624 -0.71511,0.5094 0.52326,0.84664 0.46596,1.58393 -0.12733,1.63842 -4.40956,0.40503 -7.90076,1.63803 -11.11155,3.92432 l -3.73818,2.66182 -2.78115,-4.49999 z m 30.65746,2.37033 c 0.064,-1.55326 0.37992,-1.8692 0.80554,-0.80556 0.38516,0.9625 0.3378,2.1125 -0.1052,2.55556 -0.44306,0.44306 -0.75818,-0.34445 -0.70029,-1.75 z m 12.64712,-5.49805 c -0.72358,-1.90027 -0.57043,-2.05341 0.7464,-0.7464 0.91122,0.90445 1.32089,1.98032 0.91037,2.39084 -0.41052,0.41052 -1.15607,-0.32948 -1.65677,-1.64444 z m 35.50754,-5.05751 c 0.0272,-2.2 0.326,-2.93858 0.66405,-1.64129 0.33806,1.29729 0.31583,3.09729 -0.0495,4 -0.36524,0.90271 -0.64183,-0.15871 -0.61466,-2.35871 z m -12.25993,-9.33333 c 0,-2.86321 5.19895,-7.67021 7.38737,-6.83043 1.01872,0.39092 3.0664,-0.84004 4.56357,-2.74338 1.49366,-1.89887 2.71572,-2.65076 2.71572,-1.67087 0,1.97687 -11.40065,13.24468 -13.40082,13.24468 -0.69621,0 -1.26584,-0.9 -1.26584,-2 z m 12.73045,-15.88176 c 2.75205,-2.01236 4.61567,-1.62176 4.58247,0.96045 -0.0137,1.06258 -0.39968,0.98944 -1.16667,-0.22104 -0.79907,-1.26108 -1.42251,-1.36204 -2.05828,-0.33333 -0.50161,0.81163 -1.59128,1.47568 -2.42151,1.47568 -0.83021,0 -0.35141,-0.8468 1.06399,-1.88176 z m -41.23045,-3.18191 c -0.36156,-0.58501 -0.14269,-1.89642 0.48636,-2.91425 0.94223,-1.52456 1.51141,-1.54545 3.23067,-0.11867 1.14782,0.9526 1.75814,2.26403 1.35626,2.91427 -0.90938,1.47141 -4.18981,1.54811 -5.07329,0.11853 z m 47.5029,-7.603 c 0.0148,-2.93333 0.28786,-3.97633 0.60678,-2.31778 0.31892,1.65855 0.30681,4.05854 -0.0269,5.33333 -0.33372,1.27479 -0.59466,-0.0823 -0.57986,-3.01555 z m -19.0029,0.33066 c 0,-0.96975 1.2,-1.85357 2.66667,-1.96405 1.46666,-0.11054 2.66666,0.0408 2.66666,0.33602 0,0.29528 -1.2,1.17911 -2.66666,1.96404 -2.04178,1.09272 -2.66667,1.01399 -2.66667,-0.33601 z m 173.71875,-146.99732 0.28124,-8 -4.66666,-0.84669 c -3.43984,-0.62411 -2.95416,-0.72262 1.84747,-0.37474 3.58279,0.25958 6.73751,0.69531 7.01048,0.96829 0.27299,0.27298 -0.68493,4.04161 -2.1287,8.37474 l -2.62506,7.8784 z m -35.05209,-7.33333 c -1.20172,-0.77661 -1.36617,-1.30065 -0.41203,-1.31291 0.87339,-0.0112 1.9588,0.57958 2.41203,1.31291 1.02307,1.65537 0.56149,1.65537 -2,0 z m 16.33333,-3.58577 c 1.28334,-0.33537 3.38334,-0.33537 4.66667,0 1.28333,0.33537 0.23333,0.60977 -2.33333,0.60977 -2.56667,0 -3.61667,-0.2744 -2.33334,-0.60977 z m -10,-1.29727 c 0.91667,-0.36988 2.41667,-0.36988 3.33334,0 0.91666,0.36988 0.16666,0.67251 -1.66667,0.67251 -1.83333,0 -2.58333,-0.30263 -1.66667,-0.67251 z"
       id="path114" />
    <path
       style="fill:#b8bcc1;stroke-width:1.33333"
       d="m 237.50986,367.48105 c 0.0272,-2.2 0.326,-2.93858 0.66406,-1.64129 0.33805,1.29729 0.31582,3.09729 -0.0495,4 -0.36524,0.90271 -0.64183,-0.15871 -0.61465,-2.35871 z m 67.56279,-4.71428 c -0.0975,-0.34048 -0.90032,-14.71905 -1.78404,-31.95238 -1.28988,-25.15388 -1.27345,-32.25368 0.0833,-36 0.92955,-2.56667 1.73236,-4.2712 1.78404,-3.78785 0.0516,0.48334 1.00927,16.0466 2.128,34.58498 1.82319,30.21187 1.82319,33.91705 0,35.74024 -1.11873,1.11873 -2.11383,1.75548 -2.21133,1.41501 z M 256.2753,343.22373 c 1.2973,-0.33805 3.0973,-0.31582 4,0.0495 0.90271,0.36524 -0.1587,0.64183 -2.3587,0.61465 -2.2,-0.0272 -2.93859,-0.326 -1.6413,-0.66405 z m 61.95337,-31.43995 c -5.67164,-17.06684 -10.31208,-32.14776 -10.31208,-33.51315 0,-2.10368 -0.41444,-1.95565 -2.71572,0.96995 -1.64589,2.09241 -3.5095,3.14786 -4.73071,2.67924 -1.13216,-0.43444 -2.85519,0.32236 -3.93264,1.72733 -1.70718,2.22616 -1.74976,1.98845 -0.38803,-2.16609 0.84127,-2.56667 2.33303,-5.14648 3.31501,-5.73292 0.98199,-0.58644 1.78543,-2.05112 1.78543,-3.25484 0,-1.86194 0.27697,-1.8098 1.85572,0.34925 1.50268,2.05504 2.2302,2.22705 3.82421,0.90413 1.68511,-1.3985 3.07041,1.58408 9.62231,20.717 4.20958,12.2929 9.64553,27.85307 12.07988,34.57819 3.73848,10.32789 4.11334,12.34749 2.41293,13 -1.10723,0.42488 -2.12364,0.77252 -2.25869,0.77252 -0.13504,0 -4.88598,-13.96377 -10.55762,-31.03061 z m -35.62517,11.58617 c 0.0715,-4.31161 3.92628,-13.28577 5.87143,-13.66869 1.91829,-0.37764 1.71701,0.6501 -1.30561,6.66666 -3.9123,7.78747 -4.59619,8.83627 -4.56582,7.00203 z m -24.75141,-12.01789 c 0.53659,-2.86239 1.80295,-7.18535 2.81415,-9.60659 l 1.83856,-4.40227 4.16258,3.06894 c 3.08402,2.27372 3.6124,3.18062 2.03924,3.50001 -1.50856,0.30628 -2.12336,1.947 -2.12336,5.66667 0,3.28986 -0.61938,5.24233 -1.66666,5.25377 -0.91667,0.0107 -3.1007,0.40197 -4.85339,0.87101 -3.06888,0.82126 -3.15064,0.66034 -2.21112,-4.35154 z m -32.60216,-15.47948 c 0,-1.65039 7.20897,-12.07518 9.88748,-14.29814 2.74139,-2.27514 2.69825,-1.98653 -1.09779,7.34679 -2.41928,5.94825 -3.8977,7.93044 -6,8.04444 -1.53433,0.0832 -2.78969,-0.40868 -2.78969,-1.09309 z m 22.66667,-25.05819 c 2.63866,-1.70524 12,-1.70524 12,0 0,0.73333 -3.15,1.32415 -7,1.31292 -5.01127,-0.0147 -6.43179,-0.38763 -5,-1.31292 z m 38.41666,-4.91081 c 0.9625,-0.38516 2.1125,-0.3378 2.55556,0.1052 0.44306,0.44305 -0.34445,0.75818 -1.75,0.70029 -1.55326,-0.064 -1.8692,-0.37992 -0.80556,-0.80555 z m 5.00239,-2.1467 c 0.50071,-1.31496 1.24625,-2.05496 1.65677,-1.64444 0.41052,0.41052 8.6e-4,1.48639 -0.91037,2.39084 -1.31683,1.30702 -1.46997,1.15387 -0.7464,-0.7464 z M 280.5927,249.49633 c -0.46712,-0.75582 0.0681,-0.97934 1.25464,-0.52402 2.3099,0.88639 2.73252,1.84208 0.81462,1.84208 -0.69006,0 -1.62123,-0.59313 -2.06926,-1.31806 z m 64.65723,-9.85202 c 0,-0.27686 1.05,-1.32686 2.33333,-2.33333 2.11475,-1.65849 2.16191,-1.61133 0.50341,0.50341 -1.74182,2.221 -2.83674,2.92731 -2.83674,1.82992 z m 4.25993,-8.16325 c 0.0272,-2.2 0.326,-2.93859 0.66405,-1.64129 0.33806,1.29729 0.31583,3.09729 -0.0495,4 -0.36524,0.9027 -0.64183,-0.15871 -0.61466,-2.35871 z m -16.43001,-11 c -1.6585,-2.11475 -1.61134,-2.16191 0.50341,-0.50341 2.221,1.74182 2.92731,2.83674 1.82992,2.83674 -0.27687,0 -1.32687,-1.05 -2.33333,-2.33333 z"
       id="path112" />
    <path
       style="fill:#999a9c;stroke-width:1.33333"
       d="m 234.59312,375.45515 c 0.70244,-1.84759 0.9139,-6.83487 0.46989,-11.08287 -0.60891,-5.82571 -0.26161,-8.7788 1.41328,-12.01768 1.22129,-2.36175 2.79661,-3.93804 3.50069,-3.50289 0.76579,0.47328 0.8092,1.6962 0.108,3.0436 -0.64466,1.23882 -1.59177,6.45241 -2.10469,11.58574 -1.15424,11.55203 -2.01949,15.33334 -3.50861,15.33334 -0.63568,0 -0.58106,-1.51166 0.12133,-3.35924 z m -11.90459,-2.75187 c 0.064,-1.55327 0.37992,-1.8692 0.80555,-0.80556 0.38516,0.96249 0.3378,2.11251 -0.1052,2.55556 -0.44307,0.44305 -0.75819,-0.34445 -0.7003,-1.75 z m 29.76805,-0.88889 -2.53998,-3 3,2.53998 c 2.81925,2.38696 3.60698,3.46002 2.53998,3.46002 -0.25301,0 -1.60301,-1.35 -3,-3 z m -30.87041,-20.33334 c 0.0148,-2.93333 0.28786,-3.97633 0.60678,-2.31778 0.31892,1.65854 0.30681,4.05854 -0.0269,5.33333 -0.33372,1.27479 -0.59466,-0.0823 -0.57986,-3.01555 z m 30.08043,-8.24414 c 0.96249,-0.38516 2.11249,-0.3378 2.55556,0.1052 0.44305,0.44305 -0.34446,0.75818 -1.75,0.70029 -1.55327,-0.064 -1.8692,-0.37992 -0.80556,-0.80555 z m -30.3114,-2.53363 c 0.064,-1.55326 0.37992,-1.8692 0.80555,-0.80556 0.38516,0.9625 0.3378,2.11249 -0.1052,2.55556 -0.44307,0.44305 -0.75819,-0.34445 -0.7003,-1.75 z m 34.89473,-73.47466 c 1.28333,-0.33536 3.38333,-0.33536 4.66667,0 1.28333,0.33537 0.23333,0.60977 -2.33334,0.60977 -2.56666,0 -3.61666,-0.2744 -2.33333,-0.60977 z m 45,0.39509 c 0,-0.28821 0.93116,-0.88133 2.06925,-1.31807 1.18656,-0.45532 1.72176,-0.2318 1.25464,0.52402 -0.78301,1.26694 -3.32389,1.87393 -3.32389,0.79405 z m -10.98128,-5.93683 c 0.70739,-4.81975 -0.53211,-5.21543 -6.56501,-2.09569 -2.24431,1.16056 -3.6791,1.46056 -3.18844,0.66667 0.49066,-0.79391 0.38305,-1.44347 -0.23914,-1.44347 -0.62218,0 -1.1076,-1.65 -1.07869,-3.66666 0.0389,-2.71463 0.89741,-3.914 3.30641,-4.61924 1.78962,-0.52392 3.94483,-0.37914 4.78935,0.32176 0.84452,0.70089 1.962,0.84784 2.48328,0.32654 0.52129,-0.52128 0.51412,0.18236 -0.0159,1.56364 -0.72228,1.88223 -0.5213,2.23799 0.80222,1.42002 1.13486,-0.70139 1.44629,-0.57424 0.8715,0.3558 -0.49193,0.79597 -0.28464,1.82409 0.46066,2.2847 1.86688,1.1538 1.69604,3.70414 -0.4442,6.63109 -1.62506,2.22239 -1.73952,2.05339 -1.182,-1.74516 z M 251.9166,248.97765 c 0,-0.27687 1.05,-1.32687 2.33333,-2.33334 2.11475,-1.65849 2.16191,-1.61133 0.50341,0.50342 -1.74182,2.221 -2.83674,2.9273 -2.83674,1.82992 z m 30.66666,-0.82992 c 0,-0.73334 0.63542,-1.33334 1.41203,-1.33334 0.77661,0 1.0412,0.6 0.58797,1.33334 -0.45322,0.73333 -1.08864,1.33333 -1.41202,1.33333 -0.32339,0 -0.58798,-0.6 -0.58798,-1.33333 z m -18.58866,-1.8608 c -3.56592,-1.2884 -4.08342,-1.85182 -2.32176,-2.52783 1.2468,-0.47844 3.86517,-0.26224 5.8186,0.48045 1.95342,0.7427 4.329,1.05207 5.27905,0.6875 0.95005,-0.36458 2.13929,0.004 2.64275,0.81825 0.5335,0.86323 0.31164,1.10797 -0.53183,0.58669 -0.79597,-0.49193 -1.82409,-0.28464 -2.28471,0.46066 -1.04729,1.69456 -2.79709,1.59168 -8.6021,-0.50572 z m 62.38123,-3.1392 c 0.48139,-4.0764 0.78406,-4.50742 1.63856,-2.33334 0.85783,2.18254 1.06512,1.89518 1.14182,-1.58284 0.0899,-4.07656 0.27846,-4.21952 4.633,-3.51288 3.67509,0.59639 4.66101,0.26312 5.17866,-1.75049 0.35167,-1.36792 0.70899,-0.24723 0.79406,2.49041 0.14545,4.68084 -0.24008,5.17758 -6.46768,8.33334 -3.64228,1.84569 -6.8218,3.3558 -7.0656,3.3558 -0.24379,0 -0.17755,-2.25 0.14718,-5 z m 25.56118,-11.79335 c 0.0391,-2.31189 2.34896,-4.86131 3.92768,-4.33507 1.02712,0.34238 0.60977,1.41691 -1.17912,3.03583 -1.52294,1.37824 -2.75979,1.96289 -2.74856,1.29924 z m -2.58182,-5.31776 c 0.064,-1.55327 0.37992,-1.8692 0.80555,-0.80556 0.38516,0.96249 0.3378,2.11249 -0.1052,2.55556 -0.44305,0.44305 -0.75819,-0.34445 -0.70029,-1.75 z m 12.87548,-19.56399 -2.35258,-4.3249 2.68592,3.1477 c 2.2855,2.67847 3.50705,5.53974 2.35258,5.51054 -0.18333,-0.004 -1.392,-1.95464 -2.68592,-4.33334 z"
       id="path110" />
    <path
       style="fill:#626161;stroke-width:1.33333"
       d="m 263.58326,386.51252 c -6.17496,-1.28693 -6.33333,-1.44316 -6.33333,-6.24748 0,-3.85225 -0.98805,-5.8852 -4.5278,-9.31607 -2.49029,-2.41368 -6.43737,-8.53138 -8.77129,-13.59488 -2.33392,-5.0635 -4.481,-9.20637 -4.7713,-9.20637 -0.29029,0 -1.44713,1.7778 -2.57077,3.95067 -1.41803,2.74217 -1.93833,7.00184 -1.70091,13.92504 0.40418,11.78541 -0.5501,13.29057 -7.14334,11.26705 -3.80852,-1.16887 -4.64802,-2.02211 -4.23128,-4.30047 0.28593,-1.56326 -0.0351,-8.7673 -0.7133,-16.00898 -1.42779,-15.24468 -0.97521,-18.16664 2.81384,-18.16664 1.50674,0 3.83675,-0.99299 5.17783,-2.20665 2.28809,-2.0707 2.43832,-2.03546 2.43832,0.57213 0,2.30813 1.29855,3.05031 7.66667,4.38179 4.21666,0.88165 10.64494,1.97419 14.28506,2.42786 l 6.6184,0.82487 3.78511,12 c 3.19549,10.13072 6.54003,31.68618 4.83721,31.1757 -0.28918,-0.0867 -3.37578,-0.7516 -6.85912,-1.47757 z m 35.30403,-115.27714 c -3.65257,-6.49678 -1.55273,-9.47758 9.68692,-13.75088 3.08836,-1.17419 3.34238,-0.97876 3.34238,2.5714 0,2.97496 -0.52665,3.72093 -2.33333,3.305 -3.11696,-0.71759 -7.97314,3.56905 -8.57469,7.56901 l -0.48392,3.21781 z m 11.80124,-3.86543 c 0.064,-1.55327 0.37992,-1.8692 0.80554,-0.80556 0.38516,0.96249 0.3378,2.11249 -0.1052,2.55556 -0.44306,0.44305 -0.75818,-0.34445 -0.70029,-1.75 z m -58.72503,-3.13457 c -0.75913,-1.41846 -1.38024,-4.96512 -1.38024,-7.88147 0,-4.25608 0.79023,-5.9674 4.00436,-8.67192 3.92366,-3.30153 4.12583,-3.32805 10.03239,-1.31548 4.58915,1.56368 6.46937,1.68768 7.87695,0.51951 1.33696,-1.10959 2.10038,-1.12755 2.75714,-0.0649 1.26272,2.0431 -4.89022,10.68328 -7.3375,10.30356 -1.31768,-0.20446 -2.02364,0.83828 -2.06931,3.05645 -0.10747,5.22245 -1.65919,6.63322 -7.2958,6.63322 -3.78413,0 -5.58504,-0.70501 -6.58799,-2.57901 z m 31.04402,-0.35664 c -2.70439,-3.48731 -2.84755,-4.49624 -0.6597,-4.64925 1.2295,-0.086 3.63326,-0.59704 5.3417,-1.13568 2.81545,-0.88766 3.06509,-0.61892 2.66666,2.87062 -0.48424,4.24109 -4.94718,6.011 -7.34866,2.91431 z m -4.21374,-9.06435 c 0,-1.83333 0.30264,-2.58333 0.67252,-1.66666 0.36988,0.91666 0.36988,2.41666 0,3.33333 -0.36988,0.91667 -0.67252,0.16667 -0.67252,-1.66667 z m 8.94304,-2.7186 c -2.21856,-2.49324 -2.84532,-3.94806 -1.7009,-3.94806 0.9967,0 2.74301,1.8 3.88068,4 2.55686,4.94442 2.25984,4.93736 -2.17978,-0.0519 z m 39.58557,-14.32762 c -1.29973,-6.78266 -5.01221,-11.94554 -9.01082,-12.53119 -2.59646,-0.38029 -2.3766,-0.80935 2.19664,-4.28683 4.18817,-3.18468 5.68952,-3.65054 8.53721,-2.64906 4.46484,1.5702 9.53784,9.13262 9.53784,14.21828 0,3.78805 -0.21833,3.94184 -4.58937,3.23252 -4.35352,-0.70648 -4.61475,-0.527 -5.08307,3.49221 -0.47795,4.10197 -0.52856,4.05496 -1.58843,-1.47593 z m 22.93227,-3.60859 c 1.13008,-5.91165 -1.04703,-15.19085 -4.53733,-19.33885 -2.63171,-3.1276 -4.45643,-4.00634 -8.31926,-4.00634 -2.72148,0 -5.52653,0.45 -6.23344,1 -0.7069,0.55 0.5231,-0.64265 2.73334,-2.65033 9.72658,-8.8352 21.165,-11.11619 26.45138,-5.27479 6.21258,6.8648 8.21047,20.94856 3.62256,25.53647 -2.23664,2.23664 -12.21744,8.05532 -13.8173,8.05532 -0.29419,0 -0.24916,-1.49467 0.1,-3.32148 z m 5.61003,-7.14027 c -0.87442,-0.29146 -2.11126,0.29319 -2.74855,1.29924 -2.10759,3.3271 -1.24397,4.28268 1.56943,1.73659 1.78889,-1.61892 2.20624,-2.69345 1.17912,-3.03583 z"
       id="path108" />
  </g>
</svg>
